<?xml version="1.0" encoding="UTF-8" standalone="no"?>
<!-- Created with Inkscape (http://www.inkscape.org/) -->

<svg
   width="550pt"
   height="130pt"
   viewBox="0 0 194.02777 45.861112"
   version="1.1"
   id="svg195287"
   inkscape:version="1.1.2 (0a00cf5339, 2022-02-04)"
   sodipodi:docname="logo_negativo.svg"
   xmlns:inkscape="http://www.inkscape.org/namespaces/inkscape"
   xmlns:sodipodi="http://sodipodi.sourceforge.net/DTD/sodipodi-0.dtd"
   xmlns="http://www.w3.org/2000/svg"
   xmlns:svg="http://www.w3.org/2000/svg">
  <sodipodi:namedview
     id="namedview195289"
     pagecolor="#ffffff"
     bordercolor="#cccccc"
     borderopacity="1"
     inkscape:pageshadow="0"
     inkscape:pageopacity="1"
     inkscape:pagecheckerboard="0"
     inkscape:document-units="mm"
     showgrid="false"
     inkscape:zoom="0.81134749"
     inkscape:cx="337.09354"
     inkscape:cy="161.45979"
     inkscape:window-width="1920"
     inkscape:window-height="1007"
     inkscape:window-x="0"
     inkscape:window-y="0"
     inkscape:window-maximized="1"
     inkscape:current-layer="layer1"
     units="pt" />
  <defs
     id="defs195284" />
  <g
     inkscape:label="Layer 1"
     inkscape:groupmode="layer"
     id="layer1">
    <path
       id="path142-9-1-0"
       style="fill:#000000;stroke:none;stroke-width:0.187471"
       d="m 38.889619,6.749093 c -3.811071,0.3171754 -8.640427,3.1316 -10.38823,4.702737 -1.056869,-0.352102 -2.14565,-0.600783 -3.244484,-0.743112 -2.671186,-0.4202 -5.479196,-0.166966 -8.087076,0.718159 C 15.350635,9.8420282 10.620162,7.1164903 6.872956,6.8046254 6.6809872,7.3197498 6.5236939,7.8348285 6.3916352,8.3107704 6.2687888,8.7001666 6.1679984,9.0575599 6.0865881,9.3919301 5.3108104,12.29523 5.0350027,15.162755 4.9738326,17.509578 c -0.014808,0.406983 -0.024096,0.812162 -0.027561,1.213968 0.00388,-0.01854 0.0078,-0.03704 0.011877,-0.05554 3.81e-5,0.02056 7.614e-4,0.0383 7.614e-4,0.05876 -2.056e-4,0.01743 -7.614e-4,0.03498 -7.614e-4,0.05232 3.122e-4,-0.0023 7.614e-4,-0.0044 0.00114,-0.0067 0.00548,1.198322 0.060987,2.190135 0.1185182,2.910053 -0.9487775,1.948983 -1.4735405,3.984916 -1.4735405,5.955937 0,0.21667 0.00758,0.429835 0.020138,0.640487 -0.012562,0.235175 -0.020138,0.469764 -0.020138,0.703465 0,8.609361 8.5915227,12.805501 19.1896397,12.805501 3.493718,0 6.769101,-0.456159 9.590785,-1.375952 5.833677,-1.850176 9.773298,-5.655675 9.773298,-11.485085 0,-0.233701 -0.0076,-0.468286 -0.02014,-0.703465 0.01252,-0.210656 0.02014,-0.423817 0.02014,-0.640491 0,-1.965733 -0.522129,-3.996013 -1.466095,-5.940235 0.05659,-0.734615 0.110136,-1.725149 0.112485,-2.919113 0.0041,0.0185 0.0081,0.03696 0.01188,0.05554 -0.0034,-0.401806 -0.01275,-0.806985 -0.02756,-1.213968 -0.05353,-2.053478 -0.271388,-4.505705 -0.844729,-7.031665 -3.08e-4,-0.0011 -7.61e-4,-0.0027 -7.61e-4,-0.0044 -0.08459,-0.3756 -0.176622,-0.7528229 -0.277488,-1.130681 C 39.498423,8.7097557 39.25281,7.7236039 38.889612,6.7490359 Z" />
    <path
       id="path142-3"
       style="fill:#000000;stroke:none;stroke-width:0.153065"
       d="M 9.2829944,9.8919635 C 7.4472424,14.800681 7.5912036,20.077732 7.7653442,22.324288 c -0.807391,1.655528 -1.2539949,3.385391 -1.253996,5.059914 0,6.768006 7.2854868,10.066728 16.2726038,10.066728 8.987116,0 16.272603,-3.298722 16.272603,-10.066728 0,-1.579302 -0.396815,-3.207844 -1.119272,-4.776826 0.180668,-2.05585 0.423775,-7.586588 -1.494293,-12.7154125 -3.662111,0.7739155 -6.357853,2.8694305 -7.750069,4.1820395 -1.831774,-0.71869 -3.824421,-1.132164 -5.908969,-1.132164 -2.042039,0 -3.99565,0.397228 -5.796482,1.089001 -1.405332,-1.314988 -4.08286,-3.373519 -7.7044756,-4.1388765 z" />
    <ellipse
       style="fill:#ffffff;stroke:#000000;stroke-width:0.100475"
       id="path1369-6"
       cx="21.153324"
       cy="22.77611"
       rx="5.184742"
       ry="4.6988139"
       transform="rotate(13.746489)" />
    <path
       id="path1577-1"
       style="fill:#000000;stroke:none;stroke-width:0.098185"
       d="m 15.412828,23.516623 a 3.5969918,3.5969918 0 0 0 -2.545174,1.058735 1.446588,1.4170486 0 0 1 0.761627,-0.213393 1.446588,1.4170486 0 0 1 1.446645,1.416944 1.446588,1.4170486 0 0 1 -1.446645,1.417129 1.446588,1.4170486 0 0 1 -1.446644,-1.417129 1.446588,1.4170486 0 0 1 0.03606,-0.314297 3.5969918,3.5969918 0 0 0 -0.402862,1.649023 3.5969918,3.5969918 0 0 0 3.596991,3.596998 3.5969918,3.5969918 0 0 0 3.596992,-3.596998 3.5969918,3.5969918 0 0 0 -3.596992,-3.597012 z" />
    <ellipse
       style="fill:#ffffff;stroke:#000000;stroke-width:0.100475"
       id="path1369-3-5"
       cx="-23.157074"
       cy="33.488503"
       rx="5.184742"
       ry="4.6988139"
       transform="matrix(-0.97135663,0.23762637,0.23762637,0.97135663,0,0)" />
    <path
       id="path1577-6-9"
       style="fill:#000000;stroke:none;stroke-width:0.098185"
       d="m 30.173949,23.39289 a 3.5969918,3.5969918 0 0 0 -2.545173,1.058739 1.446588,1.4170486 0 0 1 0.761628,-0.213396 1.446588,1.4170486 0 0 1 1.446644,1.41694 1.446588,1.4170486 0 0 1 -1.446644,1.417136 1.446588,1.4170486 0 0 1 -1.446645,-1.417136 1.446588,1.4170486 0 0 1 0.03605,-0.31429 3.5969918,3.5969918 0 0 0 -0.402862,1.649019 3.5969918,3.5969918 0 0 0 3.596987,3.596998 3.5969918,3.5969918 0 0 0 3.596995,-3.596998 3.5969918,3.5969918 0 0 0 -3.596995,-3.597012 z" />
    <g
       aria-label="Raça   Gatos"
       id="text2255-3-4-8-4-9-39"
       style="font-size:39.047px;line-height:1.25;font-family:Alkatra;-inkscape-font-specification:Alkatra;stroke-width:6.15317;stroke-linejoin:round;stroke-miterlimit:63;paint-order:stroke fill markers">
      <path
         d="m 61.768469,17.103622 q 0,1.277416 -0.247857,2.573898 -0.228791,1.277417 -0.762637,2.47857 -0.533845,1.182087 -1.372746,2.230712 -0.8389,1.02956 -2.059119,1.830329 1.067691,2.726426 2.345108,5.243127 1.296482,2.497635 2.878954,4.823677 l -4.76648,0.266923 -3.241206,-9.208838 q 0.07626,2.326042 0.190659,4.613952 0.114396,2.28791 0.285989,4.518623 H 50.36705 q 0.305054,-4.327964 0.438516,-8.655927 0.152527,-4.327964 0.152527,-8.713125 0,-2.535767 -0.03813,-5.052468 -0.03813,-2.535768 -0.152527,-5.1096666 1.010494,-0.3050547 2.040053,-0.4003842 1.048626,-0.09533 1.773131,-0.09533 0.51478,0 1.239284,0.1143955 0.743571,0.09533 1.54434,0.4194502 0.800768,0.3241206 1.582471,0.9151641 0.800769,0.5910436 1.410878,1.5634056 0.629175,0.953296 1.010494,2.345108 0.400384,1.372746 0.400384,3.298404 z m -7.264115,7.149719 q 0.667307,-0.190659 1.163021,-0.552912 0.51478,-0.381318 0.896098,-0.857966 0.381319,-0.476648 0.629176,-1.010494 0.266922,-0.533845 0.438516,-1.067691 0.381318,-1.239285 0.438516,-2.707361 0,-0.03813 -0.01907,-0.457582 0,-0.438516 -0.09533,-1.086757 -0.09533,-0.648241 -0.285989,-1.410878 -0.171593,-0.762637 -0.514779,-1.468076 -0.343187,-0.724505 -0.877033,-1.277416 -0.533845,-0.552912 -1.296482,-0.781703 -0.228791,2.993349 -0.362252,5.967633 -0.114396,2.955217 -0.114396,5.967632 z"
         style="font-family:'Mouse Memoirs';-inkscape-font-specification:'Mouse Memoirs'"
         id="path196790" />
      <path
         d="m 75.000217,24.177077 q 0,3.012415 -0.03813,6.02483 -0.01907,3.012416 -0.114396,6.272688 l -3.31747,-0.19066 v -2.573899 q -0.571977,1.02956 -1.296482,1.582472 -0.724505,0.533845 -1.372746,0.800768 -0.762637,0.305055 -1.506208,0.343187 -0.915164,0 -1.715932,-0.400385 -0.800769,-0.41945 -1.391812,-1.105823 -0.591044,-0.686373 -0.93423,-1.563405 -0.324121,-0.896098 -0.324121,-1.849394 0,-1.086758 0.457582,-2.135383 0.476648,-1.067691 1.601537,-1.925658 1.506208,-1.163021 2.612031,-1.944723 1.105823,-0.781703 1.830328,-1.410878 0.743571,-0.648242 1.086757,-1.220219 0.362253,-0.591044 0.362253,-1.35368 0,-1.258351 -0.41945,-1.86846 -0.41945,-0.629176 -1.105824,-0.629176 -0.41945,0 -0.724504,0.228791 -0.285989,0.209725 -0.476648,0.571978 -0.171594,0.343186 -0.266923,0.781702 -0.07626,0.419451 -0.07626,0.838901 0,0.285989 0.01907,0.629175 0.03813,0.343187 0.133461,0.724505 l -4.385161,0.07626 q -0.03813,-0.324121 -0.0572,-0.61011 -0.01907,-0.305054 -0.01907,-0.591043 0,-1.182087 0.400384,-2.326042 0.400384,-1.163021 1.163021,-2.059119 0.781702,-0.915164 1.887526,-1.468076 1.105823,-0.552912 2.535767,-0.552912 1.849394,0 2.917085,0.781703 1.086758,0.762637 1.639669,2.020987 0.571978,1.258351 0.724505,2.859888 0.171594,1.582471 0.171594,3.241206 z m -4.289832,5.395655 q 0.09533,-0.476648 0.171593,-1.086757 0.07626,-0.51478 0.133462,-1.239285 0.0572,-0.743571 0.09533,-1.658735 -0.305054,0.41945 -0.591043,0.743571 -0.285989,0.324121 -0.533846,0.571978 -0.285989,0.285988 -0.533846,0.514779 -0.438516,0.362253 -0.93423,0.819835 -0.495714,0.438516 -0.915164,0.93423 -0.400384,0.495714 -0.686373,1.029559 -0.266923,0.51478 -0.266923,1.010494 0,0.533846 0.362253,0.991428 0.362252,0.438516 0.896098,0.438516 0.400384,0 0.819834,-0.228791 0.438517,-0.228791 0.819835,-0.648241 0.400384,-0.41945 0.705439,-0.972362 0.305055,-0.552912 0.457582,-1.220219 z"
         style="font-family:'Mouse Memoirs';-inkscape-font-specification:'Mouse Memoirs'"
         id="path196792" />
      <path
         d="m 84.037463,40.764426 q 0,0.571978 -0.209725,1.048626 -0.209725,0.476648 -0.591044,0.819834 -0.362252,0.362253 -0.857966,0.571978 -0.476648,0.228791 -1.010494,0.305054 -0.571977,0.09533 -1.010493,0.0572 -0.438516,-0.03813 -0.762637,-0.133461 -0.362252,-0.09533 -0.629175,-0.247857 v -2.097251 q 0.07626,0.09533 0.266923,0.152527 0.209725,0.07626 0.438516,0.114396 0.228791,0.0572 0.438516,0.07626 0.228791,0.03813 0.362252,0.03813 0.438516,0 0.762637,-0.171593 0.343187,-0.152527 0.343187,-0.686373 0,-0.247857 -0.133462,-0.41945 -0.114395,-0.171594 -0.305055,-0.285989 -0.190659,-0.09533 -0.41945,-0.152527 -0.228791,-0.03813 -0.438516,-0.03813 -0.266923,0 -0.552912,0.01907 -0.266922,0.03813 -0.533845,0.133461 l 1.277416,-3.469997 q -1.143955,-0.629175 -1.86846,-1.658735 -0.705439,-1.048625 -1.105823,-2.364174 -0.400384,-1.334614 -0.552912,-2.859888 -0.133461,-1.544339 -0.133461,-3.145876 0,-0.991428 0.03813,-2.192581 0.0572,-1.220219 0.228791,-2.440437 0.190659,-1.239285 0.552911,-2.402306 0.381319,-1.163021 1.02956,-2.059119 0.648241,-0.915164 1.620603,-1.44901 0.991428,-0.552912 2.38324,-0.552912 0.610109,0 1.182087,0.09533 0.571977,0.09533 1.048625,0.247857 0.476648,0.133461 0.819835,0.305055 0.343186,0.152527 0.495714,0.285988 l -0.305055,4.461425 Q 85.639,20.325762 85.257682,20.135103 q -0.381319,-0.19066 -0.762637,-0.285989 -0.381318,-0.09533 -0.705439,-0.114396 -0.324121,-0.03813 -0.457582,-0.03813 -0.571978,0 -1.02956,0.495714 -0.438516,0.495714 -0.762636,1.410878 -0.305055,0.915164 -0.476648,2.230713 -0.152528,1.296482 -0.152528,2.917085 0,1.563406 0.209725,2.859888 0.228792,1.277417 0.781703,2.211647 0.552912,0.915164 1.487142,1.468075 0.93423,0.552912 2.364174,0.648241 L 85.639,37.218165 q -0.32412,0.03813 -0.648241,0.0572 -0.305055,0.01907 -0.610109,0.01907 -0.724505,0 -1.353681,-0.07626 -0.629175,-0.07626 -1.182087,-0.228791 l -0.305054,1.277417 q 0.552911,-0.01907 1.010493,0.152527 0.457582,0.190659 0.781703,0.51478 0.343187,0.343187 0.51478,0.800769 0.190659,0.476648 0.190659,1.029559 z"
         style="font-family:'Mouse Memoirs';-inkscape-font-specification:'Mouse Memoirs'"
         id="path196794" />
      <path
         d="m 98.985144,24.177077 q 0,3.012415 -0.03813,6.02483 -0.01907,3.012416 -0.114396,6.272688 l -3.317469,-0.19066 v -2.573899 q -0.571978,1.02956 -1.296483,1.582472 -0.724505,0.533845 -1.372746,0.800768 -0.762637,0.305055 -1.506208,0.343187 -0.915164,0 -1.715932,-0.400385 -0.800769,-0.41945 -1.391812,-1.105823 -0.591044,-0.686373 -0.93423,-1.563405 -0.324121,-0.896098 -0.324121,-1.849394 0,-1.086758 0.457582,-2.135383 0.476648,-1.067691 1.601537,-1.925658 1.506208,-1.163021 2.612031,-1.944723 1.105823,-0.781703 1.830328,-1.410878 0.743571,-0.648242 1.086758,-1.220219 0.362252,-0.591044 0.362252,-1.35368 0,-1.258351 -0.41945,-1.86846 -0.41945,-0.629176 -1.105823,-0.629176 -0.419451,0 -0.724505,0.228791 -0.285989,0.209725 -0.476648,0.571978 -0.171593,0.343186 -0.266923,0.781702 -0.07626,0.419451 -0.07626,0.838901 0,0.285989 0.01907,0.629175 0.03813,0.343187 0.133462,0.724505 l -4.385162,0.07626 q -0.03813,-0.324121 -0.0572,-0.61011 -0.01907,-0.305054 -0.01907,-0.591043 0,-1.182087 0.400384,-2.326042 0.400384,-1.163021 1.163021,-2.059119 0.781703,-0.915164 1.887526,-1.468076 1.105823,-0.552912 2.535767,-0.552912 1.849394,0 2.917086,0.781703 1.086757,0.762637 1.639669,2.020987 0.571977,1.258351 0.724504,2.859888 0.171594,1.582471 0.171594,3.241206 z m -4.289832,5.395655 q 0.09533,-0.476648 0.171593,-1.086757 0.07626,-0.51478 0.133462,-1.239285 0.0572,-0.743571 0.09533,-1.658735 -0.305054,0.41945 -0.591043,0.743571 -0.285989,0.324121 -0.533846,0.571978 -0.285989,0.285988 -0.533846,0.514779 -0.438516,0.362253 -0.93423,0.819835 -0.495713,0.438516 -0.915164,0.93423 -0.400384,0.495714 -0.686373,1.029559 -0.266923,0.51478 -0.266923,1.010494 0,0.533846 0.362253,0.991428 0.362252,0.438516 0.896098,0.438516 0.400384,0 0.819835,-0.228791 0.438516,-0.228791 0.819834,-0.648241 0.400384,-0.41945 0.705439,-0.972362 0.305055,-0.552912 0.457582,-1.220219 z"
         style="font-family:'Mouse Memoirs';-inkscape-font-specification:'Mouse Memoirs'"
         id="path196796" />
      <path
         d="m 131.53067,22.651804 q -0.0953,0.686373 -0.20973,1.563405 -0.0953,0.877032 -0.17159,1.887526 -0.0763,0.991428 -0.13346,2.097251 -0.0381,1.086757 -0.0381,2.192581 0,0.247857 0.0191,0.724505 0.0381,0.457582 0.0763,1.029559 0.0381,0.552912 0.0763,1.163021 0.0572,0.591044 0.0953,1.124889 0.0572,0.51478 0.0953,0.896099 0.0381,0.381318 0.0763,0.514779 -0.74357,0.343187 -1.46807,0.51478 -0.72451,0.190659 -1.29649,0.285989 -0.6673,0.09533 -1.29648,0.114395 -0.68637,0 -1.48714,-0.247857 -0.7817,-0.247856 -1.58247,-0.8389 -0.80077,-0.610109 -1.54434,-1.639669 -0.74357,-1.048625 -1.31555,-2.612031 -0.57198,-1.582471 -0.91516,-3.775052 -0.34319,-2.19258 -0.34319,-5.109666 0,-2.917085 0.40038,-5.0906 0.41945,-2.173515 1.0677,-3.717854 0.6673,-1.563405 1.48714,-2.554833 0.8389,-1.010494 1.69686,-1.5824713 0.85797,-0.5910435 1.65874,-0.8007686 0.81983,-0.228791 1.41088,-0.228791 0.55291,0.019066 1.08675,0.1143955 0.45759,0.09533 0.9533,0.2859888 0.51478,0.1906591 0.8961,0.5338457 l -0.38132,3.8322499 q -0.53385,-0.266923 -1.01049,-0.381319 -0.45759,-0.133461 -0.87704,-0.133461 -0.80076,0 -1.42994,0.438516 -0.61011,0.41945 -1.06769,1.124889 -0.43852,0.705439 -0.76264,1.601537 -0.30505,0.896098 -0.49571,1.830328 -0.47665,2.192581 -0.53385,4.995271 0.0572,2.421372 0.43852,4.442359 0.17159,0.857966 0.41945,1.715933 0.26692,0.857966 0.62917,1.601537 0.38132,0.724505 0.87704,1.258351 0.51478,0.533845 1.18208,0.74357 -0.0381,-2.478569 -0.24785,-4.919007 -0.19066,-2.440437 -0.57198,-4.919007 z"
         style="font-family:'Mouse Memoirs';-inkscape-font-specification:'Mouse Memoirs'"
         id="path196798" />
      <path
         d="m 144.64802,24.177077 q 0,3.012415 -0.0381,6.02483 -0.0191,3.012416 -0.11439,6.272688 l -3.31747,-0.19066 v -2.573899 q -0.57198,1.02956 -1.29648,1.582472 -0.72451,0.533845 -1.37275,0.800768 -0.76264,0.305055 -1.50621,0.343187 -0.91516,0 -1.71593,-0.400385 -0.80077,-0.41945 -1.39181,-1.105823 -0.59105,-0.686373 -0.93423,-1.563405 -0.32412,-0.896098 -0.32412,-1.849394 0,-1.086758 0.45758,-2.135383 0.47665,-1.067691 1.60154,-1.925658 1.5062,-1.163021 2.61203,-1.944723 1.10582,-0.781703 1.83033,-1.410878 0.74357,-0.648242 1.08675,-1.220219 0.36226,-0.591044 0.36226,-1.35368 0,-1.258351 -0.41945,-1.86846 -0.41945,-0.629176 -1.10583,-0.629176 -0.41945,0 -0.7245,0.228791 -0.28599,0.209725 -0.47665,0.571978 -0.17159,0.343186 -0.26692,0.781702 -0.0763,0.419451 -0.0763,0.838901 0,0.285989 0.0191,0.629175 0.0381,0.343187 0.13346,0.724505 l -4.38516,0.07626 q -0.0381,-0.324121 -0.0572,-0.61011 -0.0191,-0.305054 -0.0191,-0.591043 0,-1.182087 0.40038,-2.326042 0.40038,-1.163021 1.16302,-2.059119 0.7817,-0.915164 1.88753,-1.468076 1.10582,-0.552912 2.53576,-0.552912 1.8494,0 2.91709,0.781703 1.08676,0.762637 1.63967,2.020987 0.57198,1.258351 0.7245,2.859888 0.1716,1.582471 0.1716,3.241206 z m -4.28984,5.395655 q 0.0953,-0.476648 0.1716,-1.086757 0.0763,-0.51478 0.13346,-1.239285 0.0572,-0.743571 0.0953,-1.658735 -0.30506,0.41945 -0.59104,0.743571 -0.28599,0.324121 -0.53385,0.571978 -0.28599,0.285988 -0.53385,0.514779 -0.43851,0.362253 -0.93423,0.819835 -0.49571,0.438516 -0.91516,0.93423 -0.40038,0.495714 -0.68637,1.029559 -0.26693,0.51478 -0.26693,1.010494 0,0.533846 0.36226,0.991428 0.36225,0.438516 0.89609,0.438516 0.40039,0 0.81984,-0.228791 0.43852,-0.228791 0.81983,-0.648241 0.40039,-0.41945 0.70544,-0.972362 0.30506,-0.552912 0.45758,-1.220219 z"
         style="font-family:'Mouse Memoirs';-inkscape-font-specification:'Mouse Memoirs'"
         id="path196800" />
      <path
         d="m 153.57087,10.583077 q -0.15253,1.54434 -0.26692,3.012416 -0.1144,1.449009 -0.20973,2.898019 0.7245,-0.03813 1.42994,-0.0572 0.72451,-0.03813 1.46808,-0.114395 l -0.13346,3.870381 q -0.72451,-0.03813 -1.48714,-0.03813 -0.74357,0 -1.46808,0 -0.15253,2.745493 -0.22879,5.376589 -0.0572,2.612031 -0.0572,5.28126 0,1.372746 0.0191,2.764558 0.0381,1.372746 0.0763,2.783624 l -4.1945,0.07626 q 0.13346,-4.099173 0.22879,-8.103016 0.0953,-4.022908 0.0953,-8.103015 -0.7245,0.03813 -1.46808,0.07626 -0.74357,0.01907 -1.46807,0.07626 l 0.15253,-4.175436 q 0.6673,0.09533 1.37274,0.152528 0.70544,0.0572 1.37275,0.09533 0,-1.487141 -0.0381,-2.917085 -0.0191,-1.429944 -0.0763,-2.917086 z"
         style="font-family:'Mouse Memoirs';-inkscape-font-specification:'Mouse Memoirs'"
         id="path196802" />
      <path
         d="m 168.27069,25.397296 q 0,2.326042 -0.20973,4.080107 -0.20972,1.754064 -0.61011,3.050546 -0.38131,1.277417 -0.93423,2.135383 -0.53384,0.838901 -1.20115,1.353681 -0.64824,0.514779 -1.41088,0.724504 -0.76263,0.209726 -1.5634,0.209726 -0.80077,0 -1.54434,-0.171594 -0.72451,-0.171593 -1.35368,-0.629175 -0.62918,-0.457582 -1.16302,-1.239285 -0.51478,-0.781702 -0.87703,-2.001921 -0.36226,-1.220219 -0.57198,-2.917086 -0.19066,-1.696866 -0.19066,-3.984777 0,-3.431865 0.49571,-5.624446 0.51478,-2.19258 1.33462,-3.450931 0.81983,-1.277416 1.86846,-1.754064 1.04862,-0.495714 2.15445,-0.495714 0.70543,0 1.41087,0.152527 0.72451,0.133462 1.35368,0.552912 0.64824,0.41945 1.20116,1.163021 0.55291,0.743571 0.95329,1.944724 0.40039,1.182086 0.62918,2.878953 0.22879,1.696867 0.22879,4.022909 z m -4.09917,0.152527 q 0,-1.830328 -0.13347,-2.993349 -0.13346,-1.182087 -0.36225,-1.86846 -0.22879,-0.686373 -0.55291,-0.93423 -0.32412,-0.266923 -0.70544,-0.266923 -0.43851,0 -0.76263,0.381319 -0.32413,0.362252 -0.55292,1.182087 -0.20972,0.819834 -0.32412,2.116317 -0.11439,1.277416 -0.11439,3.12681 0,1.86846 0.13346,3.107745 0.15253,1.220219 0.40038,1.963789 0.26693,0.724505 0.61011,1.02956 0.36225,0.305055 0.76264,0.305055 0.8389,0 1.22022,-1.734999 0.38132,-1.734998 0.38132,-5.414721 z"
         style="font-family:'Mouse Memoirs';-inkscape-font-specification:'Mouse Memoirs'"
         id="path196804" />
      <path
         d="m 179.04294,30.621358 q 0,1.696866 -0.57198,2.840822 -0.55291,1.124889 -1.41088,1.811262 -0.8389,0.686373 -1.84939,0.991428 -1.0105,0.285988 -1.9066,0.285988 -0.6673,-0.01907 -1.29648,-0.152527 -0.55291,-0.114396 -1.18208,-0.343187 -0.61011,-0.247857 -1.10583,-0.705439 l 0.15253,-4.347029 q 0.68637,0.552912 1.39181,0.857966 0.70544,0.305055 1.29648,0.457582 0.68638,0.171594 1.33462,0.209725 0.53384,-0.285988 0.81983,-0.800768 0.30506,-0.533846 0.30506,-1.182087 0,-0.552912 -0.26693,-1.163021 -0.24785,-0.629175 -0.7817,-1.182087 -0.53384,-0.533846 -1.27741,-1.277417 -0.72451,-0.762636 -1.41088,-1.715932 -0.66731,-0.953296 -1.14396,-2.116317 -0.45758,-1.163021 -0.45758,-2.535767 0,-1.35368 0.36225,-2.459504 0.38132,-1.124889 1.04863,-1.925657 0.68637,-0.800769 1.6206,-1.239285 0.9533,-0.438516 2.07819,-0.438516 0.91516,0 1.98285,0.285988 1.06769,0.266923 2.26885,0.857967 l -0.30506,4.442359 q -0.49571,-0.438516 -1.04862,-0.705439 -0.55292,-0.285989 -1.02956,-0.438516 -0.55292,-0.171594 -1.08676,-0.228791 -0.72451,0.133461 -1.23929,0.762636 -0.51478,0.61011 -0.51478,1.582472 0,0.915164 0.36226,1.601537 0.38132,0.667307 0.93423,1.277416 0.57197,0.591044 1.23928,1.201153 0.66731,0.591044 1.23929,1.35368 0.59104,0.762637 0.99142,1.754065 0.41945,0.991428 0.45759,2.38324 z"
         style="font-family:'Mouse Memoirs';-inkscape-font-specification:'Mouse Memoirs'"
         id="path196806" />
    </g>
    <g
       aria-label="de"
       id="text2255-3-4-8-1-8"
       style="font-size:40.7405px;line-height:1.25;font-family:Alkatra;-inkscape-font-specification:Alkatra;stroke-width:1.01852">
      <path
         d="m 109.43763,17.617437 -0.2463,14.157187 h -1.89157 v -1.004895 q -0.2857,0.423632 -0.5517,0.660078 -0.266,0.226594 -0.47289,0.334965 -0.2463,0.128074 -0.45319,0.15763 -0.50245,0 -0.99504,-0.295557 -0.4926,-0.305409 -0.88668,-1.004894 -0.38422,-0.699486 -0.63052,-1.832455 -0.2463,-1.14282 -0.2463,-2.827496 0,-1.2906 0.20689,-2.265938 0.21675,-0.985191 0.57142,-1.645268 0.35466,-0.660078 0.8177,-0.995043 0.46304,-0.334964 0.96549,-0.334964 0.266,0.0197 0.532,0.137926 0.2266,0.108371 0.50245,0.325113 0.27585,0.216742 0.52215,0.610818 l -0.12807,-4.078688 z m -2.07876,9.280494 q -0.0197,-0.66993 -0.0493,-1.369415 -0.0197,-0.699485 -0.12808,-1.270896 -0.10837,-0.581262 -0.33496,-0.945783 -0.21675,-0.374372 -0.62067,-0.374372 -0.37438,0 -0.59112,0.305409 -0.20689,0.305409 -0.31526,0.788153 -0.0985,0.482743 -0.11822,1.064005 -0.0197,0.581263 -0.0197,1.132969 0,0.384225 0.01,0.807856 0.0197,0.423632 0.0591,0.847264 0.0394,0.41378 0.11822,0.788153 0.0788,0.374372 0.19704,0.669929 0.11822,0.285705 0.2857,0.453188 0.17734,0.167482 0.41378,0.167482 0.29556,0 0.50245,-0.236446 0.20689,-0.246297 0.33497,-0.660077 0.13792,-0.41378 0.19703,-0.965487 0.0591,-0.561558 0.0591,-1.201932 z"
         style="font-size:20.1767px;font-family:'Mouse Memoirs';-inkscape-font-specification:'Mouse Memoirs'"
         id="path196827" />
      <path
         d="m 116.15663,31.390399 q -0.91623,0.315261 -1.67483,0.41378 -0.74874,0.09852 -1.23149,0.09852 -0.60096,0 -1.05415,-0.236445 -0.45319,-0.236446 -0.78815,-0.630522 -0.32512,-0.394076 -0.54186,-0.906376 -0.21674,-0.52215 -0.34481,-1.093561 -0.12808,-0.57141 -0.18719,-1.152673 -0.0493,-0.591114 -0.0493,-1.113265 0,-1.300451 0.20689,-2.394013 0.20689,-1.103413 0.60097,-1.901417 0.39407,-0.798005 0.97534,-1.24134 0.58126,-0.453188 1.32015,-0.453188 0.61082,0 1.11327,0.305409 0.50244,0.305409 0.85711,0.935931 0.35467,0.630522 0.54186,1.60586 0.19703,0.965487 0.19703,2.295494 0,0.374373 -0.0197,0.758597 -0.01,0.384224 -0.0493,0.798004 l -3.48757,0.46304 q 0.0394,0.36452 0.11822,0.689633 0.0887,0.325113 0.22659,0.581262 0.14778,0.246298 0.34482,0.394077 0.19704,0.147778 0.48274,0.147778 0.53201,0 1.06401,-0.05911 0.532,-0.06896 1.11326,-0.157631 z m -3.67476,-5.12299 1.63541,-0.305409 v -0.374373 q 0,-0.837411 -0.12807,-1.290599 -0.12808,-0.46304 -0.27586,-0.679781 -0.17733,-0.25615 -0.40392,-0.295558 -0.28571,0.02956 -0.45319,0.266002 -0.16748,0.236446 -0.25615,0.610818 -0.0788,0.36452 -0.0985,0.82756 -0.0197,0.463039 -0.0197,0.935931 z"
         style="font-size:20.1767px;font-family:'Mouse Memoirs';-inkscape-font-specification:'Mouse Memoirs'"
         id="path196829" />
    </g>
  </g>
</svg>
