<?xml version="1.0" encoding="UTF-8" standalone="no"?>
<!-- Created with Inkscape (http://www.inkscape.org/) -->

<svg
   width="550pt"
   height="130pt"
   viewBox="0 0 194.02777 45.861112"
   version="1.1"
   id="svg195287"
   inkscape:version="1.1.2 (0a00cf5339, 2022-02-04)"
   sodipodi:docname="logo_negativo01.svg"
   xmlns:inkscape="http://www.inkscape.org/namespaces/inkscape"
   xmlns:sodipodi="http://sodipodi.sourceforge.net/DTD/sodipodi-0.dtd"
   xmlns="http://www.w3.org/2000/svg"
   xmlns:svg="http://www.w3.org/2000/svg">
  <sodipodi:namedview
     id="namedview195289"
     pagecolor="#ffffff"
     bordercolor="#cccccc"
     borderopacity="1"
     inkscape:pageshadow="0"
     inkscape:pageopacity="1"
     inkscape:pagecheckerboard="0"
     inkscape:document-units="mm"
     showgrid="false"
     inkscape:zoom="1.622695"
     inkscape:cx="276.39205"
     inkscape:cy="70.869757"
     inkscape:window-width="1920"
     inkscape:window-height="1007"
     inkscape:window-x="0"
     inkscape:window-y="0"
     inkscape:window-maximized="1"
     inkscape:current-layer="layer1"
     units="pt" />
  <defs
     id="defs195284" />
  <g
     inkscape:label="Layer 1"
     inkscape:groupmode="layer"
     id="layer1">
    <rect
       style="fill:#000000;fill-opacity:0.999418;stroke:#000000;stroke-width:9.79516;stroke-linejoin:round;stroke-miterlimit:63;stroke-dasharray:none;stroke-opacity:1;paint-order:stroke fill markers"
       id="rect187636"
       width="154.03003"
       height="13.894481"
       x="31.433813"
       y="18.723467" />
    <path
       id="path142-9-1-0"
       style="fill:#000000;stroke:none;stroke-width:0.187471"
       d="m 38.889619,6.749093 c -3.811071,0.3171754 -8.640427,3.1316 -10.38823,4.702737 -1.056869,-0.352102 -2.14565,-0.600783 -3.244484,-0.743112 -2.671186,-0.4202 -5.479196,-0.166966 -8.087076,0.718159 C 15.350635,9.8420282 10.620162,7.1164903 6.872956,6.8046254 6.6809872,7.3197498 6.5236939,7.8348285 6.3916352,8.3107704 6.2687888,8.7001666 6.1679984,9.0575599 6.0865881,9.3919301 5.3108104,12.29523 5.0350027,15.162755 4.9738326,17.509578 c -0.014808,0.406983 -0.024096,0.812162 -0.027561,1.213968 0.00388,-0.01854 0.0078,-0.03704 0.011877,-0.05554 3.81e-5,0.02056 7.614e-4,0.0383 7.614e-4,0.05876 -2.056e-4,0.01743 -7.614e-4,0.03498 -7.614e-4,0.05232 3.122e-4,-0.0023 7.614e-4,-0.0044 0.00114,-0.0067 0.00548,1.198322 0.060987,2.190135 0.1185182,2.910053 -0.9487775,1.948983 -1.4735405,3.984916 -1.4735405,5.955937 0,0.21667 0.00758,0.429835 0.020138,0.640487 -0.012562,0.235175 -0.020138,0.469764 -0.020138,0.703465 0,8.609361 8.5915227,12.805501 19.1896397,12.805501 3.493718,0 6.769101,-0.456159 9.590785,-1.375952 5.833677,-1.850176 9.773298,-5.655675 9.773298,-11.485085 0,-0.233701 -0.0076,-0.468286 -0.02014,-0.703465 0.01252,-0.210656 0.02014,-0.423817 0.02014,-0.640491 0,-1.965733 -0.522129,-3.996013 -1.466095,-5.940235 0.05659,-0.734615 0.110136,-1.725149 0.112485,-2.919113 0.0041,0.0185 0.0081,0.03696 0.01188,0.05554 -0.0034,-0.401806 -0.01275,-0.806985 -0.02756,-1.213968 -0.05353,-2.053478 -0.271388,-4.505705 -0.844729,-7.031665 -3.08e-4,-0.0011 -7.61e-4,-0.0027 -7.61e-4,-0.0044 -0.08459,-0.3756 -0.176622,-0.7528229 -0.277488,-1.130681 C 39.498423,8.7097557 39.25281,7.7236039 38.889612,6.7490359 Z" />
    <path
       id="path142-9-6"
       style="fill:#ffffff;stroke:none;stroke-width:0.158974"
       d="m 39.056601,28.523882 c 0,7.300672 -7.285499,10.858968 -16.272615,10.858968 -8.987117,0 -16.2726157,-3.558296 -16.2726154,-10.858968 4e-7,-7.300691 7.2854984,-15.579121 16.2726154,-15.579121 8.987116,0 16.272615,8.27843 16.272615,15.579121 z"
       sodipodi:nodetypes="sssss" />
    <path
       id="path142-3"
       style="fill:#ffffff;stroke:none;stroke-width:0.153065"
       d="M 9.2829944,9.8919635 C 7.4472424,14.800681 7.5912036,20.077732 7.7653442,22.324288 c -0.807391,1.655528 -1.2539949,3.385391 -1.253996,5.059914 0,6.768006 7.2854868,10.066728 16.2726038,10.066728 8.987116,0 16.272603,-3.298722 16.272603,-10.066728 0,-1.579302 -0.396815,-3.207844 -1.119272,-4.776826 0.180668,-2.05585 0.423775,-7.586588 -1.494293,-12.7154125 -3.662111,0.7739155 -6.357853,2.8694305 -7.750069,4.1820395 -1.831774,-0.71869 -3.824421,-1.132164 -5.908969,-1.132164 -2.042039,0 -3.99565,0.397228 -5.796482,1.089001 -1.405332,-1.314988 -4.08286,-3.373519 -7.7044756,-4.1388765 z" />
    <ellipse
       style="fill:#ffffff;stroke:#000000;stroke-width:0.100475"
       id="path1369-6"
       cx="21.153324"
       cy="22.77611"
       rx="5.184742"
       ry="4.6988139"
       transform="rotate(13.746489)" />
    <path
       id="path1577-1"
       style="fill:#000000;stroke:none;stroke-width:0.098185"
       d="m 15.412828,23.516623 a 3.5969918,3.5969918 0 0 0 -2.545174,1.058735 1.446588,1.4170486 0 0 1 0.761627,-0.213393 1.446588,1.4170486 0 0 1 1.446645,1.416944 1.446588,1.4170486 0 0 1 -1.446645,1.417129 1.446588,1.4170486 0 0 1 -1.446644,-1.417129 1.446588,1.4170486 0 0 1 0.03606,-0.314297 3.5969918,3.5969918 0 0 0 -0.402862,1.649023 3.5969918,3.5969918 0 0 0 3.596991,3.596998 3.5969918,3.5969918 0 0 0 3.596992,-3.596998 3.5969918,3.5969918 0 0 0 -3.596992,-3.597012 z" />
    <ellipse
       style="fill:#ffffff;stroke:#000000;stroke-width:0.100475"
       id="path1369-3-5"
       cx="-23.157074"
       cy="33.488503"
       rx="5.184742"
       ry="4.6988139"
       transform="matrix(-0.97135663,0.23762637,0.23762637,0.97135663,0,0)" />
    <path
       id="path1577-6-9"
       style="fill:#000000;stroke:none;stroke-width:0.098185"
       d="m 30.173949,23.39289 a 3.5969918,3.5969918 0 0 0 -2.545173,1.058739 1.446588,1.4170486 0 0 1 0.761628,-0.213396 1.446588,1.4170486 0 0 1 1.446644,1.41694 1.446588,1.4170486 0 0 1 -1.446644,1.417136 1.446588,1.4170486 0 0 1 -1.446645,-1.417136 1.446588,1.4170486 0 0 1 0.03605,-0.31429 3.5969918,3.5969918 0 0 0 -0.402862,1.649019 3.5969918,3.5969918 0 0 0 3.596987,3.596998 3.5969918,3.5969918 0 0 0 3.596995,-3.596998 3.5969918,3.5969918 0 0 0 -3.596995,-3.597012 z" />
    <text
       xml:space="preserve"
       style="font-size:39.047px;line-height:1.25;font-family:Alkatra;-inkscape-font-specification:Alkatra;fill:#ffffff;fill-opacity:1;stroke:#000000;stroke-width:6.15317;stroke-linejoin:round;stroke-miterlimit:63;stroke-dasharray:none;stroke-opacity:1;paint-order:stroke fill markers"
       x="49.318424"
       y="36.322067"
       id="text2255-3-4-8-4-9-39"><tspan
         sodipodi:role="line"
         id="tspan2253-6-9-7-9-7-4"
         style="font-style:normal;font-variant:normal;font-weight:normal;font-stretch:normal;font-family:'Mouse Memoirs';-inkscape-font-specification:'Mouse Memoirs';fill:#ffffff;fill-opacity:1;stroke:#000000;stroke-width:6.15317;stroke-linejoin:round;stroke-miterlimit:63;stroke-dasharray:none;stroke-opacity:1;paint-order:stroke fill markers"
         x="49.318424"
         y="36.322067">Raça   Gatos</tspan></text>
    <text
       xml:space="preserve"
       style="font-size:40.7405px;line-height:1.25;font-family:Alkatra;-inkscape-font-specification:Alkatra;fill:#ffffff;stroke-width:1.01852"
       x="102.71863"
       y="31.656401"
       id="text2255-3-4-8-1-8"><tspan
         sodipodi:role="line"
         id="tspan2253-6-9-7-0-1"
         style="font-style:normal;font-variant:normal;font-weight:normal;font-stretch:normal;font-size:20.1767px;font-family:'Mouse Memoirs';-inkscape-font-specification:'Mouse Memoirs';fill:#ffffff;stroke-width:1.01852"
         x="102.71863"
         y="31.656401">de</tspan></text>
  </g>
</svg>
