<?xml version="1.0" encoding="UTF-8" standalone="no"?>
<!-- Created with Inkscape (http://www.inkscape.org/) -->

<svg
   width="42"
   height="42"
   viewBox="0 0 11.1125 11.1125"
   version="1.1"
   id="svg44067"
   inkscape:version="1.1.2 (0a00cf5339, 2022-02-04)"
   sodipodi:docname="facebook.svg"
   xmlns:inkscape="http://www.inkscape.org/namespaces/inkscape"
   xmlns:sodipodi="http://sodipodi.sourceforge.net/DTD/sodipodi-0.dtd"
   xmlns:xlink="http://www.w3.org/1999/xlink"
   xmlns="http://www.w3.org/2000/svg"
   xmlns:svg="http://www.w3.org/2000/svg">
  <sodipodi:namedview
     id="namedview44069"
     pagecolor="#ffffff"
     bordercolor="#cccccc"
     borderopacity="1"
     inkscape:pageshadow="0"
     inkscape:pageopacity="1"
     inkscape:pagecheckerboard="0"
     inkscape:document-units="mm"
     showgrid="false"
     showguides="false"
     units="px"
     inkscape:zoom="6.5442762"
     inkscape:cx="25.747691"
     inkscape:cy="15.89175"
     inkscape:window-width="2560"
     inkscape:window-height="1007"
     inkscape:window-x="1920"
     inkscape:window-y="0"
     inkscape:window-maximized="1"
     inkscape:current-layer="layer1" />
  <defs
     id="defs44064">
    <linearGradient
       inkscape:collect="always"
       xlink:href="#linearGradient35535"
       id="linearGradient35537"
       x1="199.10004"
       y1="540.59204"
       x2="251.57874"
       y2="591.84552"
       gradientUnits="userSpaceOnUse"
       gradientTransform="matrix(0.26458333,0,0,0.26458333,41.009144,-3.6455428)" />
    <linearGradient
       inkscape:collect="always"
       id="linearGradient35535">
      <stop
         style="stop-color:#005aff;stop-opacity:1;"
         offset="0"
         id="stop35531" />
      <stop
         style="stop-color:#005aff;stop-opacity:0;"
         offset="1"
         id="stop35533" />
    </linearGradient>
  </defs>
  <g
     inkscape:label="Layer 1"
     inkscape:groupmode="layer"
     id="layer1">
    <g
       id="g44174"
       transform="matrix(1.0133189,0,0,1.0133189,-93.784844,-140.33937)">
      <path
         id="path142-9-1-6-5-2-8-6-6-3"
         style="fill:url(#linearGradient35537);fill-opacity:1;fill-rule:nonzero;stroke:none;stroke-width:0.0533249"
         d="m 102.58898,138.99473 c -1.08404,0.0902 -2.45773,0.89077 -2.954885,1.33767 -0.300622,-0.10016 -0.610322,-0.17089 -0.922877,-0.21137 -0.759807,-0.11953 -1.558533,-0.0475 -2.300333,0.20427 -0.517458,-0.4508 -1.863023,-1.22607 -2.928897,-1.31478 -0.05461,0.14653 -0.09935,0.29304 -0.136914,0.42842 -0.03494,0.11076 -0.06361,0.21242 -0.08677,0.30753 -0.220665,0.82583 -0.299116,1.64149 -0.316518,2.30903 -0.0042,0.11576 -0.0069,0.23102 -0.0078,0.34531 0.0013,-0.005 0.0021,-0.0106 0.0034,-0.0158 1.3e-5,0.006 1.9e-4,0.0109 1.9e-4,0.0167 -5e-5,0.005 -1.9e-4,0.01 -1.9e-4,0.0149 1e-4,-5.3e-4 1.9e-4,-0.001 1.9e-4,-0.002 0.0016,0.34086 0.01733,0.62298 0.03372,0.82776 -0.269877,0.55438 -0.419145,1.13349 -0.419145,1.69413 0,0.0616 0.0021,0.12227 0.0057,0.18219 -0.0036,0.0669 -0.0057,0.13362 -0.0057,0.20009 0,2.4489 2.443819,3.64247 5.458405,3.64247 0.993775,0 1.925444,-0.12975 2.728064,-0.39138 1.65936,-0.52627 2.77997,-1.60873 2.77997,-3.26688 0,-0.0665 -0.002,-0.13321 -0.006,-0.2001 0.004,-0.0599 0.006,-0.12055 0.006,-0.18218 0,-0.55915 -0.14852,-1.13665 -0.41702,-1.68968 0.0161,-0.20896 0.0313,-0.49071 0.032,-0.83033 10e-4,0.005 0.002,0.0105 0.003,0.0158 -8e-4,-0.11429 -0.004,-0.22955 -0.008,-0.34531 -0.0152,-0.5841 -0.0772,-1.28163 -0.24028,-2.00012 -9e-5,-2e-4 -1.8e-4,-0.001 -1.8e-4,-0.001 -0.0241,-0.10683 -0.0502,-0.21413 -0.0789,-0.32161 -0.0476,-0.19585 -0.11745,-0.47636 -0.22077,-0.75357 z" />
      <path
         id="path142-9-1-6-5-2-8-6-6-3-36-1"
         style="fill:#ffffff;fill-opacity:0.122867;fill-rule:nonzero;stroke:none;stroke-width:0.049507"
         d="m 93.687722,139.38609 c -0.05057,0.1364 -0.09178,0.27323 -0.126568,0.39924 -0.03235,0.1031 -0.05875,0.19773 -0.0802,0.28626 -0.204337,0.76871 -0.277394,1.52782 -0.293507,2.14919 -0.0039,0.10776 -0.0062,0.21498 -0.0071,0.32136 0.0013,-0.005 0.0019,-0.01 0.0033,-0.0148 1.1e-5,0.005 5.3e-4,0.0104 5.3e-4,0.0159 -5.1e-5,0.005 -5.3e-4,0.009 -5.3e-4,0.0137 9.3e-5,-5.3e-4 5.3e-4,-0.001 5.3e-4,-0.002 0.0016,0.31729 0.01593,0.57989 0.03109,0.77051 -0.249901,0.51603 -0.388432,1.05479 -0.388432,1.57665 0,0.0574 0.0019,0.11423 0.0055,0.17001 -0.0033,0.0623 -0.0055,0.12403 -0.0055,0.1859 0,2.27952 2.263037,3.39077 5.054534,3.39077 0.920231,0 1.783228,-0.12061 2.526451,-0.36413 0.77977,-0.2486 1.42976,-0.63127 1.88215,-1.14891 -0.42117,0.36464 -0.95551,0.64626 -1.57228,0.8429 -0.743218,0.24353 -1.606215,0.36414 -2.526446,0.36414 -2.791497,0 -5.054537,-1.11071 -5.054537,-3.39022 0,-0.0619 0.0021,-0.12419 0.0055,-0.18646 -0.0034,-0.0558 -0.0055,-0.11209 -0.0055,-0.16946 0,-0.52186 0.138534,-1.06117 0.388435,-1.5772 -0.01519,-0.19062 -0.02942,-0.45322 -0.0311,-0.77051 0,2.7e-4 -5.29e-4,0.001 -5.29e-4,0.002 0,-0.005 5.29e-4,-0.009 5.29e-4,-0.0137 0,-0.005 -5.29e-4,-0.01 -5.29e-4,-0.0154 -0.0013,0.005 -0.0019,0.009 -0.0033,0.0143 7.94e-4,-0.10639 0.0037,-0.21361 0.0076,-0.32137 0.01611,-0.62137 0.08862,-1.38047 0.292963,-2.14919 0.02146,-0.0885 0.04784,-0.18315 0.0802,-0.28626 0.006,-0.0218 0.0132,-0.0451 0.01963,-0.0675 -0.06845,-0.0111 -0.136527,-0.0202 -0.202943,-0.0258 z" />
      <g
         id="g35529"
         transform="matrix(0.26458333,0,0,0.26458333,41.161297,-3.8570771)">
        <path
           id="path923-6"
           d="m 215.9257,550.41397 c -2.06261,0 -3.73493,1.56075 -3.73493,3.47471 v 2.7503 h -1.85821 c -0.14865,0 -0.26022,0.11163 -0.26022,0.24171 v 2.84284 c 0,0.13007 0.11157,0.24171 0.26022,0.24171 h 1.85821 v 9.45836 c 0,0.13007 0.11157,0.24135 0.26023,0.24135 h 3.71642 c 0.14865,0 0.25985,-0.11128 0.25985,-0.24135 v -9.45836 h 2.69441 c 0.13007,0 0.24164,-0.0931 0.26022,-0.2232 l 0.26022,-2.84284 c 0.0186,-0.14866 -0.11156,-0.26022 -0.26022,-0.26022 h -2.95463 v -2.02553 c 0,-0.46455 0.40881,-0.8547 0.92911,-0.8547 h 2.08141 c 0.14866,0 0.26022,-0.11164 0.26022,-0.24171 v -2.84284 c 0,-0.14866 -0.13015,-0.26023 -0.26022,-0.26023 z"
           style="fill:#000000;fill-opacity:0.371784;stroke-width:0.185821" />
        <path
           id="path923-6-9"
           d="m 215.34744,549.75355 c -2.06261,0 -3.73493,1.56075 -3.73493,3.47471 v 2.7503 h -1.85821 c -0.14865,0 -0.26022,0.11163 -0.26022,0.24171 v 2.84284 c 0,0.13007 0.11157,0.24171 0.26022,0.24171 h 1.85821 v 9.45836 c 0,0.13007 0.11157,0.24135 0.26023,0.24135 h 3.71642 c 0.14865,0 0.25985,-0.11128 0.25985,-0.24135 v -9.45836 h 2.69441 c 0.13007,0 0.24164,-0.0931 0.26022,-0.2232 l 0.26022,-2.84284 c 0.0186,-0.14866 -0.11156,-0.26022 -0.26022,-0.26022 h -2.95463 v -2.02553 c 0,-0.46455 0.40881,-0.8547 0.92911,-0.8547 h 2.08141 c 0.14866,0 0.26022,-0.11164 0.26022,-0.24171 v -2.84284 c 0,-0.14866 -0.13015,-0.26023 -0.26022,-0.26023 z"
           style="fill:#ffffff;stroke-width:0.185821" />
      </g>
    </g>
  </g>
</svg>
