<?xml version="1.0" encoding="UTF-8" standalone="no"?>
<!-- Created with Inkscape (http://www.inkscape.org/) -->

<svg
   width="42"
   height="42"
   viewBox="0 0 11.1125 11.1125"
   version="1.1"
   id="svg44067"
   inkscape:version="1.1.2 (0a00cf5339, 2022-02-04)"
   sodipodi:docname="instagram.svg"
   xmlns:inkscape="http://www.inkscape.org/namespaces/inkscape"
   xmlns:sodipodi="http://sodipodi.sourceforge.net/DTD/sodipodi-0.dtd"
   xmlns:xlink="http://www.w3.org/1999/xlink"
   xmlns="http://www.w3.org/2000/svg"
   xmlns:svg="http://www.w3.org/2000/svg">
  <sodipodi:namedview
     id="namedview44069"
     pagecolor="#ffffff"
     bordercolor="#cccccc"
     borderopacity="1"
     inkscape:pageshadow="0"
     inkscape:pageopacity="1"
     inkscape:pagecheckerboard="0"
     inkscape:document-units="mm"
     showgrid="false"
     showguides="false"
     units="px"
     inkscape:zoom="6.5442762"
     inkscape:cx="25.747691"
     inkscape:cy="15.89175"
     inkscape:window-width="2560"
     inkscape:window-height="1007"
     inkscape:window-x="1920"
     inkscape:window-y="0"
     inkscape:window-maximized="1"
     inkscape:current-layer="layer1" />
  <defs
     id="defs44064">
    <linearGradient
       inkscape:collect="always"
       xlink:href="#linearGradient12793"
       id="linearGradient12795"
       x1="356.39236"
       y1="539.17255"
       x2="394.81015"
       y2="520.95227"
       gradientUnits="userSpaceOnUse"
       gradientTransform="matrix(0.26458333,0,0,0.26458333,-97.583096,-134.84394)" />
    <linearGradient
       inkscape:collect="always"
       id="linearGradient12793">
      <stop
         style="stop-color:#f6a063;stop-opacity:1"
         offset="0"
         id="stop12789" />
      <stop
         style="stop-color:#b11d98;stop-opacity:1"
         offset="1"
         id="stop12791" />
    </linearGradient>
  </defs>
  <g
     inkscape:label="Layer 1"
     inkscape:groupmode="layer"
     id="layer1">
    <g
       id="g45113"
       transform="translate(3.7773441,0.98768966)">
      <path
         id="path142-9-1-6-5-2-8-6-6-3-3-6-9"
         style="fill:none;stroke:none;stroke-width:0.0533249"
         d="M 6.332565,-0.41478831 C 5.2485221,-0.32456804 3.8748319,0.47598174 3.3776772,0.92288415 3.077055,0.82272877 2.7673549,0.75199771 2.4548,0.71151117 1.6949934,0.5919883 0.89626658,0.66401846 0.15446753,0.91578802 -0.36299132,0.46498301 -1.7085563,-0.31028319 -2.7744302,-0.39899269 c -0.054607,0.14652889 -0.099348,0.29303662 -0.136914,0.42841333 -0.034936,0.11076252 -0.063611,0.21242337 -0.086767,0.30753314 C -3.2187768,1.1627871 -3.2972284,1.978442 -3.31463,2.6459884 c -0.00423,0.1157605 -0.00685,0.231013 -0.00783,0.345305 0.00132,-0.00527 0.00212,-0.010557 0.00339,-0.015796 1.32e-5,0.00585 1.905e-4,0.010874 1.905e-4,0.016722 -5.03e-5,0.00492 -1.905e-4,0.00995 -1.905e-4,0.014896 1.005e-4,-5.291e-4 1.905e-4,-0.00132 1.905e-4,-0.00185 0.00159,0.3408627 0.01733,0.6229774 0.033716,0.8277569 -0.2698776,0.5543788 -0.419145,1.1334909 -0.419145,1.6941377 0,0.061632 0.00212,0.1222639 0.00574,0.1821841 -0.00357,0.066892 -0.00574,0.1336225 -0.00574,0.2000964 0,2.448896 2.4438187,3.6424685 5.4584044,3.6424685 0.993775,0 1.9254443,-0.129757 2.7280605,-0.3913849 C 6.141512,8.63425 7.262123,7.5517946 7.262123,5.8936403 c 0,-0.066474 -0.00212,-0.1332019 -0.00574,-0.2000991 0.00357,-0.059915 0.00574,-0.1205495 0.00574,-0.1821789 0,-0.5591466 -0.1485186,-1.1366526 -0.4170257,-1.6896767 0.016113,-0.2089574 0.031329,-0.4907121 0.031993,-0.8303287 0.00132,0.00527 0.00212,0.010531 0.00339,0.015796 C 6.8796837,2.8928631 6.8768526,2.777608 6.8726457,2.6618449 6.8574057,2.0777428 6.7954509,1.3802164 6.632367,0.66171923 6.6322691,0.66152873 6.6321792,0.6606609 6.6321792,0.66039632 6.6081021,0.55356551 6.5819401,0.44626638 6.5532487,0.33878734 6.5056634,0.14293218 6.4357975,-0.13757378 6.3324856,-0.41478567 Z" />
      <path
         id="path142-9-1-6-5-2-8-6-6-3-3-6-22"
         style="fill:url(#linearGradient12795);fill-opacity:1;stroke:none;stroke-width:0.0533249"
         d="M 6.3325624,-0.41478831 C 5.2485195,-0.32456804 3.8748293,0.47598174 3.3776746,0.92288415 3.0770523,0.82272877 2.7673523,0.75199771 2.4547973,0.71151117 1.6949907,0.5919883 0.89626394,0.66401846 0.15446488,0.91578802 -0.36299397,0.46498301 -1.7085589,-0.31028319 -2.7744329,-0.39899269 c -0.054607,0.14652889 -0.099348,0.29303662 -0.1369139,0.42841333 -0.034936,0.11076252 -0.063611,0.21242337 -0.086768,0.30753314 C -3.2187794,1.1627871 -3.297231,1.978442 -3.3146327,2.6459884 c -0.00423,0.1157605 -0.00685,0.231013 -0.00783,0.345305 0.00132,-0.00527 0.00212,-0.010557 0.00339,-0.015796 1.33e-5,0.00585 1.905e-4,0.010874 1.905e-4,0.016722 -5.02e-5,0.00492 -1.905e-4,0.00995 -1.905e-4,0.014896 1.006e-4,-5.291e-4 1.905e-4,-0.00132 1.905e-4,-0.00185 0.00159,0.3408627 0.01733,0.6229774 0.033716,0.8277569 -0.2698777,0.5543788 -0.419145,1.1334909 -0.419145,1.6941377 0,0.061632 0.00212,0.1222639 0.00574,0.1821841 -0.00357,0.066892 -0.00574,0.1336225 -0.00574,0.2000964 0,2.448896 2.4438186,3.6424685 5.4584044,3.6424685 0.993775,0 1.9254443,-0.129757 2.7280605,-0.3913849 C 6.1415094,8.63425 7.2621203,7.5517946 7.2621203,5.8936403 c 0,-0.066474 -0.00212,-0.1332019 -0.00574,-0.2000991 0.00357,-0.059915 0.00574,-0.1205495 0.00574,-0.1821789 0,-0.5591466 -0.1485185,-1.1366526 -0.4170256,-1.6896767 0.016113,-0.2089574 0.031329,-0.4907121 0.031993,-0.8303287 0.00132,0.00527 0.00212,0.010531 0.00339,0.015796 C 6.879681,2.8928631 6.87685,2.777608 6.8726431,2.6618449 6.8574031,2.0777428 6.7954483,1.3802164 6.6323644,0.66171923 6.6322665,0.66152873 6.6321765,0.6606609 6.6321765,0.66039632 6.6080994,0.55356551 6.5819374,0.44626638 6.553246,0.33878734 6.5056607,0.14293218 6.4357948,-0.13757378 6.332483,-0.41478567 Z" />
      <path
         id="path929-2"
         style="fill:#000000;fill-opacity:0.210972;stroke-width:0.0497261"
         d="m 0.7048379,2.5915583 c -0.79064643,0 -1.43215253,0.6414055 -1.43215253,1.4320546 v 2.1482262 c 0,0.790649 0.6415061,1.4320546 1.43215253,1.4320572 h 2.1481282 c 0.7906491,0 1.4321526,-0.6414082 1.4321526,-1.4320572 V 4.0236129 C 4.2801445,3.2329638 3.6436152,2.5915583 2.8529661,2.5915583 Z m 2.0636362,0.4424865 c 0.5917406,0 1.0740654,0.4824174 1.0740654,1.0741581 v 1.9790462 0.06468 C 3.8077283,6.7138354 3.345279,7.1613093 2.7734271,7.1613093 H 0.79428823 0.72970079 C 0.16779459,7.1265007 -0.27977986,6.6640487 -0.27977986,6.0921968 V 4.1131532 4.0484732 C -0.24497128,3.486567 0.21748334,3.0390904 0.78933258,3.0390904 H 2.7684741 Z m 0.3331236,0.4425765 c -0.1640945,0 -0.2934017,0.1342813 -0.2934017,0.2934044 0,0.1640946 0.1342813,0.2934044 0.2934017,0.2934044 0.1640973,0 0.2934071,-0.1342787 0.2934071,-0.2934044 C 3.3999789,3.6109026 3.265695,3.4766213 3.1015977,3.4766213 Z M 1.7043147,3.919203 c -0.6911949,0 -1.25306405,0.5618692 -1.25306405,1.2530614 0,0.6911949 0.56186915,1.2531593 1.25306405,1.2531593 0.6911922,0 1.2530587,-0.5619644 1.2530587,-1.2531593 0,-0.6911922 -0.5618665,-1.2530614 -1.2530587,-1.2530614 z m 0,0.4425845 c 0.4475321,0 0.8105722,0.3629421 0.8105722,0.8104769 0,0.4475348 -0.3630401,0.8105749 -0.8105722,0.8105749 -0.4475348,0 -0.81057754,-0.3630401 -0.81057754,-0.8105749 0,-0.4475348 0.36304274,-0.8104769 0.81057754,-0.8104769 z" />
      <path
         id="path929-2-78"
         style="fill:#ffffff;stroke-width:0.0497261"
         d="m 0.59312552,2.4745516 c -0.79064643,0 -1.43215252,0.6414056 -1.43215252,1.4320546 v 2.1482262 c 0,0.790649 0.64150609,1.4320546 1.43215252,1.4320572 H 2.7412538 c 0.790649,0 1.4321525,-0.6414082 1.4321525,-1.4320572 V 3.9066062 C 4.1684321,3.1159572 3.5319028,2.4745516 2.7412538,2.4745516 Z M 2.6567617,2.9170381 c 0.5917406,0 1.0740655,0.4824175 1.0740655,1.0741581 v 1.9790462 0.06468 C 3.6960159,6.5968287 3.2335666,7.0443026 2.6617147,7.0443026 H 0.68257585 0.61798842 C 0.05608222,7.009494 -0.39149224,6.547042 -0.39149224,5.9751901 V 3.9961465 3.9314665 C -0.35668365,3.3695603 0.10577097,2.9220837 0.67762021,2.9220837 H 2.6567617 Z m 0.3331237,0.4425765 c -0.1640946,0 -0.2934018,0.1342813 -0.2934018,0.2934044 0,0.1640946 0.1342814,0.2934044 0.2934018,0.2934044 0.1640972,0 0.293407,-0.1342787 0.293407,-0.2934044 C 3.2882666,3.4938959 3.1539826,3.3596146 2.9898854,3.3596146 Z M 1.5926023,3.8021964 c -0.69119486,0 -1.25306402,0.5618691 -1.25306402,1.2530613 0,0.6911949 0.56186916,1.2531593 1.25306402,1.2531593 0.6911922,0 1.2530587,-0.5619644 1.2530587,-1.2531593 0,-0.6911922 -0.5618665,-1.2530613 -1.2530587,-1.2530613 z m 0,0.4425844 c 0.4475321,0 0.8105722,0.3629422 0.8105722,0.8104769 0,0.4475348 -0.3630401,0.8105749 -0.8105722,0.8105749 -0.4475348,0 -0.81057751,-0.3630401 -0.81057751,-0.8105749 0,-0.4475347 0.36304271,-0.8104769 0.81057751,-0.8104769 z" />
      <path
         id="path142-9-1-6-5-2-8-6-6-3-36-1-3-9-4"
         style="fill:#ffffff;fill-opacity:0.27914;fill-rule:nonzero;stroke:none;stroke-width:0.0496832"
         d="m -2.6213503,0.01298472 c -0.05057,0.13736902 -0.091781,0.27517725 -0.1265687,0.402082 C -2.780272,0.51890774 -2.806672,0.6142133 -2.828114,0.70337523 -3.0324517,1.4775699 -3.1055085,2.242086 -3.1216216,2.8678918 c -0.00392,0.1085268 -0.00619,0.2165085 -0.00709,0.3236568 0.00132,-0.00492 0.00185,-0.010028 0.00325,-0.014896 1.05e-5,0.00545 5.291e-4,0.010504 5.291e-4,0.016007 -5.02e-5,0.0046 -5.291e-4,0.0091 -5.291e-4,0.013811 9.26e-5,-5.291e-4 5.291e-4,-0.00132 5.291e-4,-0.00159 0.00159,0.3195532 0.015928,0.5840227 0.031094,0.7760018 -0.2499016,0.5197104 -0.3884322,1.06231 -0.3884322,1.5878968 0,0.057777 0.00185,0.1150461 0.00545,0.1712198 -0.00333,0.062712 -0.00545,0.1249178 -0.00545,0.1872324 0,2.295779 2.2630368,3.4149532 5.0545338,3.4149532 0.9202314,0 1.7832282,-0.1214702 2.526448,-0.3667363 C 4.8784918,8.7250788 5.5284725,8.3396841 5.9808676,7.8183544 5.5597012,8.1855881 5.0253593,8.4692267 4.4085891,8.667262 3.6653693,8.9125255 2.8023725,9.0339957 1.8821411,9.0339957 c -2.791497,0 -5.0545364,-1.1186239 -5.0545364,-3.4144003 0,-0.062315 0.00212,-0.1250711 0.00545,-0.1877827 -0.00339,-0.056176 -0.00545,-0.1128898 -0.00545,-0.1706695 0,-0.5255868 0.1385332,-1.0687393 0.3884348,-1.5884524 -0.015187,-0.1919764 -0.029422,-0.4564486 -0.031099,-0.7759991 0,2.645e-4 -5.291e-4,0.00106 -5.291e-4,0.00159 0,-0.00466 5.291e-4,-0.00921 5.291e-4,-0.013811 0,-0.0055 -5.291e-4,-0.010001 -5.291e-4,-0.015478 -0.00132,0.00489 -0.00185,0.00947 -0.00325,0.014367 7.937e-4,-0.1071457 0.0037,-0.2151301 0.00762,-0.3236569 0.016113,-0.6258057 0.088625,-1.3903192 0.2929625,-2.16451652 0.021458,-0.0891619 0.047842,-0.18446485 0.080195,-0.28830587 0.00601,-0.02193396 0.013203,-0.04545277 0.019632,-0.06793442 C -2.4868811,0.02780403 -2.554961,0.01857008 -2.6213767,0.01298737 Z" />
    </g>
  </g>
</svg>
