<?xml version="1.0" encoding="UTF-8" standalone="no"?>
<!-- Created with Inkscape (http://www.inkscape.org/) -->

<svg
   width="42"
   height="42"
   viewBox="0 0 11.1125 11.1125"
   version="1.1"
   id="svg44067"
   inkscape:version="1.1.2 (0a00cf5339, 2022-02-04)"
   sodipodi:docname="pinterest.svg"
   xmlns:inkscape="http://www.inkscape.org/namespaces/inkscape"
   xmlns:sodipodi="http://sodipodi.sourceforge.net/DTD/sodipodi-0.dtd"
   xmlns:xlink="http://www.w3.org/1999/xlink"
   xmlns="http://www.w3.org/2000/svg"
   xmlns:svg="http://www.w3.org/2000/svg">
  <sodipodi:namedview
     id="namedview44069"
     pagecolor="#ffffff"
     bordercolor="#cccccc"
     borderopacity="1"
     inkscape:pageshadow="0"
     inkscape:pageopacity="1"
     inkscape:pagecheckerboard="0"
     inkscape:document-units="mm"
     showgrid="false"
     showguides="false"
     units="px"
     inkscape:zoom="6.5442762"
     inkscape:cx="25.747691"
     inkscape:cy="15.89175"
     inkscape:window-width="2560"
     inkscape:window-height="1007"
     inkscape:window-x="1920"
     inkscape:window-y="0"
     inkscape:window-maximized="1"
     inkscape:current-layer="layer1" />
  <defs
     id="defs44064">
    <linearGradient
       inkscape:collect="always"
       xlink:href="#linearGradient39830"
       id="linearGradient39832"
       x1="316.02124"
       y1="550.14557"
       x2="370.38342"
       y2="592.89825"
       gradientUnits="userSpaceOnUse"
       gradientTransform="matrix(0.26458333,0,0,0.26458333,-67.644435,-130.68356)" />
    <linearGradient
       inkscape:collect="always"
       id="linearGradient39830">
      <stop
         style="stop-color:#bb0000;stop-opacity:1;"
         offset="0"
         id="stop39826" />
      <stop
         style="stop-color:#bb0000;stop-opacity:0;"
         offset="1"
         id="stop39828" />
    </linearGradient>
  </defs>
  <g
     inkscape:label="Layer 1"
     inkscape:groupmode="layer"
     id="layer1">
    <g
       id="g44913"
       transform="translate(-11.707291,-11.383782)">
      <path
         id="path142-9-1-6-5-2-8-6-6-3-3-6"
         style="fill:url(#linearGradient39832);fill-opacity:1;stroke:none;stroke-width:0.0533249"
         d="m 21.817156,11.95671 c -1.084043,0.09022 -2.457733,0.89077 -2.954888,1.337672 -0.300622,-0.100155 -0.610323,-0.170886 -0.922877,-0.211373 -0.759807,-0.119523 -1.558534,-0.04749 -2.300333,0.204277 -0.517459,-0.450805 -1.863024,-1.226071 -2.928898,-1.314781 -0.05461,0.146529 -0.09935,0.293037 -0.136914,0.428414 -0.03493,0.110762 -0.06361,0.212423 -0.08677,0.307533 -0.220665,0.825833 -0.299117,1.641488 -0.316518,2.309034 -0.0042,0.115761 -0.0069,0.231013 -0.0078,0.345305 0.0013,-0.0053 0.0021,-0.01056 0.0034,-0.01579 1.3e-5,0.0058 1.9e-4,0.01087 1.9e-4,0.01672 -5e-5,0.0049 -1.9e-4,0.0099 -1.9e-4,0.0149 10e-5,-5.3e-4 1.9e-4,-0.0013 1.9e-4,-0.0019 0.0016,0.340863 0.01733,0.622978 0.03372,0.827757 -0.269878,0.554379 -0.419145,1.133491 -0.419145,1.694138 0,0.06163 0.0021,0.122264 0.0057,0.182184 -0.0036,0.06689 -0.0057,0.133623 -0.0057,0.200097 0,2.448896 2.443819,3.642468 5.458404,3.642468 0.993775,0 1.925445,-0.129757 2.728061,-0.391385 1.659361,-0.526272 2.779972,-1.608727 2.779972,-3.266882 0,-0.06647 -0.0021,-0.133202 -0.0057,-0.200099 0.0036,-0.05992 0.0057,-0.120549 0.0057,-0.182179 0,-0.559146 -0.148519,-1.136652 -0.417026,-1.689676 0.01611,-0.208958 0.03133,-0.490713 0.03199,-0.830329 0.0013,0.0053 0.0021,0.01053 0.0034,0.0158 -7.94e-4,-0.11429 -0.0036,-0.229545 -0.0078,-0.345308 -0.01524,-0.584102 -0.07719,-1.281629 -0.240278,-2.000126 -9.8e-5,-1.9e-4 -1.88e-4,-0.0011 -1.88e-4,-0.0013 -0.02408,-0.10683 -0.05024,-0.21413 -0.07893,-0.321609 -0.04759,-0.195855 -0.117451,-0.476361 -0.220763,-0.753573 z" />
      <path
         id="path927-7-2"
         d="m 17.421355,14.401285 c -0.14686,-0.0057 -0.296722,5.29e-4 -0.447757,0.01905 -0.94983,0.116306 -1.899663,0.96924 -1.93843,2.190451 -0.01939,0.639683 0.116279,1.137163 0.555657,1.369774 0.155074,0.07754 0.329559,-0.02577 0.348943,-0.213151 0.03231,-0.303688 -0.200229,-0.439478 -0.24546,-0.749628 -0.232611,-1.608897 1.673411,-2.707341 2.674935,-1.583052 0.691372,0.775375 0.239096,3.172643 -0.878731,2.920645 -1.066136,-0.239072 0.523401,-2.14522 -0.329507,-2.513523 -0.691375,-0.303688 -1.059728,0.930471 -0.730195,1.544307 -0.174458,0.943372 -0.523298,1.841511 -0.471609,2.97226 0.0065,0.174459 0.206693,0.245486 0.310076,0.109795 0.342456,-0.465223 0.484632,-1.15006 0.607399,-1.860818 0.27138,0.18092 0.420018,0.374687 0.768937,0.406996 1.279364,0.103383 1.996533,-1.434415 1.822074,-2.849468 -0.135691,-1.09683 -1.01832,-1.723625 -2.046332,-1.763643 z"
         style="fill:#000000;fill-opacity:0.17552;stroke-width:0.0646144" />
      <path
         id="path927-7-2-4"
         d="m 17.369105,14.267491 c -0.14686,-0.0057 -0.296722,5.29e-4 -0.447757,0.01905 -0.94983,0.116305 -1.899663,0.96924 -1.93843,2.190451 -0.01939,0.639683 0.116279,1.137163 0.555657,1.369774 0.155075,0.07754 0.329559,-0.02577 0.348943,-0.213151 0.03231,-0.303689 -0.200229,-0.439478 -0.24546,-0.749628 -0.232611,-1.608897 1.673411,-2.707341 2.674935,-1.583053 0.691372,0.775375 0.239096,3.172643 -0.878731,2.920646 -1.066136,-0.239072 0.523401,-2.145221 -0.329507,-2.513523 -0.691375,-0.303689 -1.059728,0.930471 -0.730194,1.544307 -0.174459,0.943371 -0.523299,1.84151 -0.47161,2.97226 0.0065,0.174458 0.206693,0.245486 0.310076,0.109794 0.342456,-0.465222 0.484632,-1.150059 0.607399,-1.860817 0.27138,0.180919 0.420018,0.374687 0.768937,0.406995 1.279364,0.103383 1.996533,-1.434415 1.822074,-2.849467 -0.135691,-1.09683 -1.01832,-1.723626 -2.046332,-1.763644 z"
         style="fill:#ffffff;stroke-width:0.0646144" />
      <path
         id="path142-9-1-6-5-2-8-6-6-3-36-1-3-9"
         style="fill:#ffffff;fill-opacity:0.27914;fill-rule:nonzero;stroke:none;stroke-width:0.049507"
         d="m 12.795412,12.404628 c -0.05057,0.136395 -0.09178,0.273227 -0.126569,0.399235 -0.03235,0.103106 -0.05875,0.197737 -0.0802,0.286266 -0.204338,0.768713 -0.277395,1.527815 -0.293508,2.149189 -0.0039,0.107757 -0.0062,0.214974 -0.0071,0.321363 0.0013,-0.0049 0.0019,-0.0099 0.0033,-0.01479 10e-6,0.0054 5.29e-4,0.01043 5.29e-4,0.0159 -5e-5,0.0046 -5.29e-4,0.009 -5.29e-4,0.01371 9.2e-5,-5.29e-4 5.29e-4,-0.0013 5.29e-4,-0.0016 0.0016,0.317289 0.01593,0.579888 0.03109,0.770507 -0.249902,0.51603 -0.388432,1.054785 -0.388432,1.576652 0,0.05737 0.0019,0.114231 0.0054,0.170005 -0.0033,0.06227 -0.0054,0.124034 -0.0054,0.185907 0,2.27952 2.263036,3.39077 5.054533,3.39077 0.920232,0 1.783229,-0.12061 2.526448,-0.364138 0.779778,-0.2486 1.429758,-0.631266 1.882154,-1.148903 -0.421167,0.364633 -0.955509,0.646261 -1.572279,0.842894 -0.74322,0.243528 -1.606216,0.364138 -2.526448,0.364138 -2.791497,0 -5.054536,-1.110702 -5.054536,-3.39022 0,-0.06188 0.0021,-0.124187 0.0054,-0.186454 -0.0034,-0.05578 -0.0054,-0.112091 -0.0054,-0.169461 0,-0.521864 0.138533,-1.061169 0.388434,-1.577202 -0.01519,-0.190619 -0.02942,-0.453218 -0.0311,-0.770504 0,2.65e-4 -5.29e-4,0.0011 -5.29e-4,0.0016 0,-0.0046 5.29e-4,-0.0091 5.29e-4,-0.01371 0,-0.0055 -5.29e-4,-0.0099 -5.29e-4,-0.01537 -0.0013,0.0049 -0.0019,0.0094 -0.0033,0.01426 7.94e-4,-0.106386 0.0037,-0.213606 0.0076,-0.321363 0.01611,-0.621374 0.08863,-1.380474 0.292962,-2.149189 0.02146,-0.08853 0.04784,-0.183158 0.0802,-0.286263 0.006,-0.02178 0.0132,-0.04513 0.01963,-0.06745 -0.06845,-0.01106 -0.136528,-0.02024 -0.202944,-0.02577 z" />
    </g>
  </g>
</svg>
