<?xml version="1.0" encoding="UTF-8" standalone="no"?>
<!-- Created with Inkscape (http://www.inkscape.org/) -->

<svg
   width="42"
   height="42"
   viewBox="0 0 11.1125 11.1125"
   version="1.1"
   id="svg44067"
   inkscape:version="1.1.2 (0a00cf5339, 2022-02-04)"
   sodipodi:docname="twitter.svg"
   xmlns:inkscape="http://www.inkscape.org/namespaces/inkscape"
   xmlns:sodipodi="http://sodipodi.sourceforge.net/DTD/sodipodi-0.dtd"
   xmlns:xlink="http://www.w3.org/1999/xlink"
   xmlns="http://www.w3.org/2000/svg"
   xmlns:svg="http://www.w3.org/2000/svg">
  <sodipodi:namedview
     id="namedview44069"
     pagecolor="#ffffff"
     bordercolor="#cccccc"
     borderopacity="1"
     inkscape:pageshadow="0"
     inkscape:pageopacity="1"
     inkscape:pagecheckerboard="0"
     inkscape:document-units="mm"
     showgrid="false"
     showguides="false"
     units="px"
     inkscape:zoom="6.5442762"
     inkscape:cx="25.747691"
     inkscape:cy="15.89175"
     inkscape:window-width="2560"
     inkscape:window-height="1007"
     inkscape:window-x="1920"
     inkscape:window-y="0"
     inkscape:window-maximized="1"
     inkscape:current-layer="layer1" />
  <defs
     id="defs44064">
    <linearGradient
       inkscape:collect="always"
       xlink:href="#linearGradient37239"
       id="linearGradient37241"
       x1="268.80637"
       y1="558.06763"
       x2="298.51105"
       y2="589.80554"
       gradientUnits="userSpaceOnUse"
       gradientTransform="matrix(0.26458333,0,0,0.26458333,-52.652384,-128.74293)" />
    <linearGradient
       inkscape:collect="always"
       id="linearGradient37239">
      <stop
         style="stop-color:#00aadb;stop-opacity:1;"
         offset="0"
         id="stop37235" />
      <stop
         style="stop-color:#00aadb;stop-opacity:0;"
         offset="1"
         id="stop37237" />
    </linearGradient>
  </defs>
  <g
     inkscape:label="Layer 1"
     inkscape:groupmode="layer"
     id="layer1">
    <g
       id="g44721"
       transform="translate(-12.758465,-13.3244)">
      <path
         id="path142-9-1-6-5-2-8-6-6-3-3"
         style="fill:url(#linearGradient37241);fill-opacity:1;stroke:none;stroke-width:0.0533249"
         d="m 22.868329,13.897338 c -1.084042,0.09022 -2.457733,0.89077 -2.954887,1.337672 -0.300623,-0.100155 -0.610323,-0.170886 -0.922878,-0.211373 -0.759806,-0.119523 -1.558533,-0.04749 -2.300332,0.204277 -0.517459,-0.450805 -1.863024,-1.226071 -2.928898,-1.314781 -0.05461,0.146529 -0.09935,0.293037 -0.136914,0.428414 -0.03494,0.110762 -0.06361,0.212423 -0.08677,0.307533 -0.220665,0.825833 -0.299117,1.641488 -0.316519,2.309034 -0.0042,0.115761 -0.0069,0.231013 -0.0078,0.345305 0.0013,-0.0053 0.0021,-0.01056 0.0034,-0.0158 1.4e-5,0.0058 1.91e-4,0.01087 1.91e-4,0.01672 -5e-5,0.0049 -1.91e-4,0.0099 -1.91e-4,0.0149 1.01e-4,-5.3e-4 1.91e-4,-0.0013 1.91e-4,-0.0019 0.0016,0.340863 0.01733,0.622978 0.03372,0.827757 -0.269878,0.554379 -0.419145,1.133491 -0.419145,1.694138 0,0.06163 0.0021,0.122264 0.0057,0.182184 -0.0036,0.06689 -0.0057,0.133623 -0.0057,0.200097 0,2.448896 2.443818,3.642468 5.458404,3.642468 0.993775,0 1.925444,-0.129757 2.728061,-0.391385 1.65936,-0.526272 2.779971,-1.608727 2.779971,-3.266882 0,-0.06647 -0.0021,-0.133202 -0.0057,-0.200099 0.0036,-0.05992 0.0057,-0.120549 0.0057,-0.182179 0,-0.559146 -0.148518,-1.136652 -0.417025,-1.689676 0.01611,-0.208958 0.03133,-0.490713 0.03199,-0.830329 0.0013,0.0053 0.0021,0.01053 0.0034,0.0158 -7.94e-4,-0.11429 -0.0036,-0.229545 -0.0078,-0.345308 -0.01524,-0.584102 -0.07719,-1.281629 -0.240279,-2.000126 -9.7e-5,-1.9e-4 -1.87e-4,-0.0011 -1.87e-4,-0.0013 -0.02408,-0.10683 -0.05024,-0.21413 -0.07893,-0.321609 -0.04759,-0.195855 -0.117451,-0.476361 -0.220763,-0.753573 z" />
      <path
         id="path933-5"
         style="fill:#000000;fill-opacity:0.123115;stroke-width:0.0543256"
         d="m 19.602038,17.591588 c -0.03853,-0.0021 -0.0774,-0.0016 -0.11679,0.0011 -0.152112,0.01087 -0.299051,0.05391 -0.429429,0.124539 -0.135816,0.07062 -0.249479,0.168572 -0.347266,0.293521 -0.09778,0.12495 -0.168677,0.271637 -0.206706,0.423749 -0.03803,0.152112 -0.03259,0.299021 -0.01085,0.451136 0.0054,0.02716 2.4e-5,0.02687 -0.02169,0.02687 -0.836616,-0.130379 -1.532041,-0.434319 -2.09703,-1.097092 -0.02172,-0.02716 -0.03821,-0.02716 -0.05994,0 -0.244464,0.38028 -0.124907,0.98847 0.179316,1.287261 0.04346,0.03803 0.08185,0.08161 0.130742,0.114205 -0.0163,0.0054 -0.222769,-0.02186 -0.402043,-0.114205 -0.02172,-0.0163 -0.03824,-0.0054 -0.03824,0.0217 0,0.04346 2.65e-4,0.07616 0.0057,0.125058 0.04889,0.385709 0.303942,0.738801 0.662492,0.880049 0.04346,0.0163 0.08702,0.03254 0.135909,0.04341 -0.08149,0.0163 -0.162756,0.03258 -0.396359,0.01085 -0.02716,-0.0054 -0.03825,0.01109 -0.02739,0.03824 0.173842,0.488932 0.548978,0.635262 0.831474,0.716751 0.03803,0.0054 0.07566,0.0057 0.113689,0.01654 0,0.0054 -0.0052,0.0052 -0.0052,0.0052 -0.09236,0.14668 -0.418399,0.255733 -0.570508,0.31006 -0.277064,0.09779 -0.576104,0.140848 -0.864029,0.113686 -0.0489,-0.0054 -0.05399,-0.0054 -0.07028,0 -0.01088,0.0054 -1.1e-5,0.0222 0.01085,0.03307 0.05976,0.03803 0.119557,0.07593 0.179316,0.108522 0.184708,0.09779 0.374671,0.178982 0.575678,0.238744 1.037619,0.293356 2.205638,0.0764 2.987929,-0.716751 0.61388,-0.624745 0.825791,-1.483363 0.825791,-2.347143 0,-0.0326 0.03821,-0.05398 0.05994,-0.07028 0.157546,-0.12495 0.287443,-0.271621 0.401526,-0.434599 0.02172,-0.02716 0.02739,-0.0545 0.02739,-0.0708 v -0.01654 c 0,-0.0163 4.8e-5,-0.01087 -0.0217,0 -0.162975,0.07606 -0.336722,0.119851 -0.510561,0.152445 0.08148,-0.0163 0.206386,-0.168648 0.255281,-0.22841 0.07606,-0.09235 0.135868,-0.200879 0.168465,-0.320394 0.0054,-0.01087 0.0054,-0.02193 0,-0.02739 -0.01087,-0.0054 -0.01651,0 -0.02739,0 -0.195572,0.108651 -0.396364,0.184938 -0.608232,0.239263 -0.0163,0.0054 -0.03254,1.3e-5 -0.04341,-0.01085 -0.0163,-0.02172 -0.03253,-0.03796 -0.05426,-0.05426 -0.09236,-0.07606 -0.18487,-0.141542 -0.293521,-0.185002 -0.101862,-0.04889 -0.21305,-0.07606 -0.328663,-0.08217 z" />
      <path
         id="path933-5-1"
         style="fill:#ffffff;stroke-width:0.0543256"
         d="m 19.531487,17.460746 c -0.03853,-0.0021 -0.0774,-0.0016 -0.11679,0.0011 -0.152112,0.01087 -0.299051,0.05391 -0.42943,0.12454 -0.135815,0.07062 -0.249478,0.168571 -0.347265,0.29352 -0.09779,0.12495 -0.168677,0.271638 -0.206706,0.423749 -0.03803,0.152112 -0.03259,0.299022 -0.01085,0.451136 0.0054,0.02716 2.4e-5,0.02687 -0.0217,0.02687 -0.836615,-0.130379 -1.53204,-0.434319 -2.097029,-1.097092 -0.02172,-0.02716 -0.03821,-0.02716 -0.05994,0 -0.244464,0.38028 -0.124907,0.98847 0.179316,1.287261 0.04346,0.03803 0.08185,0.08161 0.130741,0.114205 -0.0163,0.0054 -0.222768,-0.02185 -0.402042,-0.114205 -0.02172,-0.0163 -0.03824,-0.0054 -0.03824,0.0217 0,0.04346 2.64e-4,0.07617 0.0057,0.125058 0.04889,0.38571 0.303943,0.738801 0.662493,0.880049 0.04346,0.0163 0.08702,0.03254 0.135909,0.04341 -0.08149,0.0163 -0.162756,0.03258 -0.396359,0.01085 -0.02716,-0.0054 -0.03825,0.01109 -0.02739,0.03824 0.173841,0.488931 0.548978,0.635261 0.831474,0.716751 0.03803,0.0054 0.07566,0.0057 0.113689,0.01654 0,0.0054 -0.0052,0.0052 -0.0052,0.0052 -0.09236,0.14668 -0.418398,0.255733 -0.570507,0.31006 -0.277064,0.09779 -0.576104,0.140849 -0.864029,0.113686 -0.04889,-0.0054 -0.05399,-0.0054 -0.07028,0 -0.01088,0.0054 -1.1e-5,0.0222 0.01085,0.03307 0.05976,0.03803 0.119557,0.07593 0.179316,0.108522 0.184708,0.09779 0.374671,0.178983 0.575677,0.238744 1.03762,0.293357 2.205638,0.0764 2.987929,-0.716751 0.613881,-0.624745 0.825791,-1.483363 0.825791,-2.347143 0,-0.0326 0.03821,-0.05399 0.05994,-0.07028 0.157547,-0.124949 0.287444,-0.271621 0.401527,-0.434599 0.02172,-0.02716 0.02739,-0.0545 0.02739,-0.0708 v -0.01654 c 0,-0.0163 4.7e-5,-0.01087 -0.0217,0 -0.162975,0.07606 -0.336722,0.119851 -0.510561,0.152445 0.08148,-0.0163 0.206385,-0.168648 0.25528,-0.22841 0.07606,-0.09235 0.135869,-0.200879 0.168466,-0.320394 0.0054,-0.01087 0.0054,-0.02193 0,-0.02739 -0.01087,-0.0054 -0.01651,0 -0.02739,0 -0.195572,0.108651 -0.396364,0.184939 -0.608232,0.239263 -0.0163,0.0054 -0.03254,1.3e-5 -0.04341,-0.01085 -0.0163,-0.02172 -0.03253,-0.03796 -0.05426,-0.05426 -0.09236,-0.07606 -0.18487,-0.141542 -0.293521,-0.185002 -0.101862,-0.04889 -0.21305,-0.07605 -0.328663,-0.08217 z" />
      <path
         id="path142-9-1-6-5-2-8-6-6-3-36-1-3"
         style="fill:#ffffff;fill-opacity:0.122867;fill-rule:nonzero;stroke:none;stroke-width:0.049507"
         d="m 14.061507,14.360486 c -0.05057,0.136395 -0.09178,0.273227 -0.126569,0.399235 -0.03235,0.103105 -0.05875,0.197736 -0.0802,0.286266 -0.204338,0.768712 -0.277395,1.527815 -0.293508,2.149189 -0.0039,0.107757 -0.0062,0.214974 -0.0071,0.321363 0.0013,-0.0049 0.0019,-0.0099 0.0033,-0.01479 10e-6,0.0054 5.29e-4,0.01043 5.29e-4,0.0159 -5e-5,0.0046 -5.29e-4,0.009 -5.29e-4,0.01371 9.2e-5,-5.29e-4 5.29e-4,-0.0013 5.29e-4,-0.0016 0.0016,0.317288 0.01593,0.579887 0.03109,0.770506 -0.249902,0.51603 -0.388432,1.054785 -0.388432,1.576652 0,0.05737 0.0019,0.114231 0.0054,0.170006 -0.0033,0.06227 -0.0054,0.124034 -0.0054,0.185906 0,2.279521 2.263036,3.390771 5.054533,3.390771 0.920232,0 1.783228,-0.120611 2.526448,-0.364138 0.779778,-0.2486 1.429758,-0.631267 1.882154,-1.148903 -0.421167,0.364633 -0.955509,0.64626 -1.572279,0.842894 -0.74322,0.243527 -1.606217,0.364138 -2.526448,0.364138 -2.791497,0 -5.054536,-1.110703 -5.054536,-3.39022 0,-0.06188 0.0021,-0.124188 0.0054,-0.186455 -0.0034,-0.05578 -0.0054,-0.112091 -0.0054,-0.16946 0,-0.521864 0.138533,-1.06117 0.388434,-1.577203 -0.01519,-0.190619 -0.02942,-0.453218 -0.0311,-0.770503 0,2.64e-4 -5.29e-4,0.0011 -5.29e-4,0.0016 0,-0.0046 5.29e-4,-0.0091 5.29e-4,-0.0137 0,-0.0055 -5.29e-4,-0.0099 -5.29e-4,-0.01537 -0.0013,0.0049 -0.0019,0.0094 -0.0033,0.01426 7.93e-4,-0.106387 0.0037,-0.213607 0.0076,-0.321363 0.01611,-0.621374 0.08863,-1.380475 0.292962,-2.14919 0.02146,-0.08853 0.04784,-0.183157 0.08019,-0.286263 0.006,-0.02177 0.0132,-0.04513 0.01963,-0.06745 -0.06845,-0.01106 -0.136528,-0.02024 -0.202944,-0.02577 z" />
    </g>
  </g>
</svg>
