<?xml version="1.0" encoding="UTF-8" standalone="no"?>
<!-- Created with Inkscape (http://www.inkscape.org/) -->

<svg
   width="64"
   height="48"
   viewBox="0 0 16.933333 12.700001"
   version="1.1"
   id="svg5"
   inkscape:version="1.1.2 (0a00cf5339, 2022-02-04)"
   sodipodi:docname="favicon.svg"
   xmlns:inkscape="http://www.inkscape.org/namespaces/inkscape"
   xmlns:sodipodi="http://sodipodi.sourceforge.net/DTD/sodipodi-0.dtd"
   xmlns="http://www.w3.org/2000/svg"
   xmlns:svg="http://www.w3.org/2000/svg">
  <sodipodi:namedview
     id="namedview7"
     pagecolor="#ffffff"
     bordercolor="#cccccc"
     borderopacity="1"
     inkscape:pageshadow="0"
     inkscape:pageopacity="1"
     inkscape:pagecheckerboard="0"
     inkscape:document-units="mm"
     showgrid="false"
     units="px"
     inkscape:zoom="0.57370932"
     inkscape:cx="-159.48843"
     inkscape:cy="561.25984"
     inkscape:window-width="2560"
     inkscape:window-height="1007"
     inkscape:window-x="1920"
     inkscape:window-y="0"
     inkscape:window-maximized="1"
     inkscape:current-layer="layer1" />
  <defs
     id="defs2" />
  <g
     inkscape:label="Layer 1"
     inkscape:groupmode="layer"
     id="layer1">
    <path
       id="path245-6"
       style="fill:#000000;fill-rule:evenodd;stroke-width:0.025881"
       d="m 1.104598,0.0417482 c -0.14519859,-7.27e-4 -0.29119249,0.0064 -0.43770391,0.02201 0,0 -0.0634189,2.266549 0.54360421,3.932818 A 8.4666675,5.7208814 0 0 0 1.4844333e-7,6.9374142 8.4666675,5.7208814 0 0 0 8.4666666,12.658302 8.4666675,5.7208814 0 0 0 16.933333,6.9374142 8.4666675,5.7208814 0 0 0 15.724553,3.9921212 c 0.60528,-1.66585 0.541936,-3.92837 0.541936,-3.92837 -1.653657,-0.1766768 -3.240959,0.740647 -4.369361,1.643852 A 8.4666675,5.7208814 0 0 0 8.4666666,1.2165202 8.4666675,5.7208814 0 0 0 5.0377708,1.7088182 C 4.0092149,0.8852452 2.5989683,0.0494992 1.104598,0.0417592 Z" />
  </g>
</svg>
