<?xml version="1.0" encoding="UTF-8" standalone="no"?>
<!-- Created with Inkscape (http://www.inkscape.org/) -->

<svg
   width="100"
   height="72"
   viewBox="0 0 26.458333 19.050001"
   version="1.1"
   id="svg5"
   inkscape:version="1.1.2 (0a00cf5339, 2022-02-04)"
   sodipodi:docname="icon.svg"
   xmlns:inkscape="http://www.inkscape.org/namespaces/inkscape"
   xmlns:sodipodi="http://sodipodi.sourceforge.net/DTD/sodipodi-0.dtd"
   xmlns="http://www.w3.org/2000/svg"
   xmlns:svg="http://www.w3.org/2000/svg">
  <sodipodi:namedview
     id="namedview7"
     pagecolor="#ffffff"
     bordercolor="#cccccc"
     borderopacity="1"
     inkscape:pageshadow="0"
     inkscape:pageopacity="1"
     inkscape:pagecheckerboard="0"
     inkscape:document-units="mm"
     showgrid="false"
     units="px"
     inkscape:zoom="0.57370932"
     inkscape:cx="-159.48843"
     inkscape:cy="561.25984"
     inkscape:window-width="2560"
     inkscape:window-height="1007"
     inkscape:window-x="1920"
     inkscape:window-y="0"
     inkscape:window-maximized="1"
     inkscape:current-layer="layer1" />
  <defs
     id="defs2" />
  <g
     inkscape:label="Layer 1"
     inkscape:groupmode="layer"
     id="layer1">
    <g
       id="g697"
       transform="matrix(0.2566565,0,0,0.2566565,-8.8877146,-17.677187)">
      <g
         id="g691">
        <path
           id="path245"
           style="fill:#808080;fill-rule:evenodd;stroke-width:0.0711657"
           d="m 94.19278,107.9968 c -0.399255,-0.002 -0.800695,0.0174 -1.203563,0.0605 0,0 -0.174383,6.23237 1.494759,10.81414 a 23.280944,15.730808 0 0 0 -3.328528,8.08649 23.280944,15.730808 0 0 0 23.280942,15.73083 23.280944,15.730808 0 0 0 23.28094,-15.73083 23.280944,15.730808 0 0 0 -3.3238,-8.09872 c 1.66435,-4.58062 1.49017,-10.80191 1.49017,-10.80191 -4.54709,-0.48581 -8.91172,2.03658 -12.01451,4.52014 a 23.280944,15.730808 0 0 0 -9.4328,-1.35035 23.280944,15.730808 0 0 0 -9.42849,1.35368 c -2.82824,-2.26459 -6.706021,-4.56266 -10.81512,-4.58393 z" />
        <path
           id="path245-6"
           style="fill:#000000;fill-rule:evenodd;stroke-width:0.0711657"
           d="m 37.666163,107.99681 c -0.399255,-0.002 -0.800697,0.0174 -1.203562,0.0605 0,0 -0.174384,6.23237 1.494758,10.81414 a 23.280944,15.730808 0 0 0 -3.328528,8.08649 23.280944,15.730808 0 0 0 23.280941,15.73083 23.280944,15.730808 0 0 0 23.280942,-15.73083 23.280944,15.730808 0 0 0 -3.323803,-8.09872 c 1.66435,-4.58062 1.490171,-10.80191 1.490171,-10.80191 -4.54709,-0.48581 -8.911724,2.03657 -12.014508,4.52013 a 23.280944,15.730808 0 0 0 -9.432802,-1.35034 23.280944,15.730808 0 0 0 -9.428495,1.35368 c -2.828238,-2.26459 -6.706018,-4.56266 -10.815114,-4.58394 z" />
      </g>
      <path
         id="path245-69"
         style="fill:#d45500;fill-rule:evenodd;stroke-width:0.0711657"
         d="m 65.929474,69.284888 c -0.399256,-0.0022 -0.800698,0.01743 -1.203563,0.06046 0,0 -0.174384,6.232372 1.494758,10.814142 a 23.280944,15.730808 0 0 0 -3.328528,8.086493 23.280944,15.730808 0 0 0 23.28094,15.730837 23.280944,15.730808 0 0 0 23.280939,-15.730837 23.280944,15.730808 0 0 0 -3.3238,-8.098723 c 1.66435,-4.580614 1.49017,-10.801909 1.49017,-10.801909 -4.54709,-0.485809 -8.911724,2.03658 -12.014508,4.52014 a 23.280944,15.730808 0 0 0 -9.432801,-1.350344 23.280944,15.730808 0 0 0 -9.428495,1.35368 C 73.916348,71.604232 70.038569,69.306164 65.929474,69.284888 Z" />
    </g>
  </g>
</svg>
