<?xml version="1.0" encoding="UTF-8" standalone="no"?>
<!-- Created with Inkscape (http://www.inkscape.org/) -->

<svg
   width="16"
   height="16"
   viewBox="0 0 4.2333329 4.2333332"
   version="1.1"
   id="svg195287"
   inkscape:version="1.1.2 (0a00cf5339, 2022-02-04)"
   sodipodi:docname="favicon.svg"
   xmlns:inkscape="http://www.inkscape.org/namespaces/inkscape"
   xmlns:sodipodi="http://sodipodi.sourceforge.net/DTD/sodipodi-0.dtd"
   xmlns="http://www.w3.org/2000/svg"
   xmlns:svg="http://www.w3.org/2000/svg">
  <sodipodi:namedview
     id="namedview195289"
     pagecolor="#ffffff"
     bordercolor="#cccccc"
     borderopacity="1"
     inkscape:pageshadow="0"
     inkscape:pageopacity="1"
     inkscape:pagecheckerboard="0"
     inkscape:document-units="mm"
     showgrid="false"
     inkscape:zoom="12.98156"
     inkscape:cx="23.456349"
     inkscape:cy="26.075449"
     inkscape:window-width="1929"
     inkscape:window-height="954"
     inkscape:window-x="2551"
     inkscape:window-y="0"
     inkscape:window-maximized="0"
     inkscape:current-layer="layer1"
     units="px"
     inkscape:lockguides="false" />
  <defs
     id="defs195284" />
  <g
     inkscape:label="Layer 1"
     inkscape:groupmode="layer"
     id="layer1">
    <g
       id="g2587"
       transform="matrix(0.5015674,0,0,0.50156719,-0.71440627,-0.7144023)">
      <path
         id="path142-9-1-0"
         style="fill:#000000;stroke:none;stroke-width:0.0430506"
         d="M 9.1490671,1.4243539 C 8.3147448,1.5007556 7.2575,2.1786995 6.8748684,2.5571578 6.6434998,2.4723428 6.4051411,2.4124401 6.1645844,2.3781556 5.5798056,2.2769371 4.965074,2.3379366 4.394155,2.5511471 3.9958966,2.1693858 2.9602986,1.5128532 2.1399567,1.4377306 2.0979305,1.5618146 2.0634964,1.6858878 2.0345858,1.8005335 2.0076914,1.894332 1.9856263,1.9804217 1.967804,2.0609653 1.7979719,2.7603175 1.7375913,3.4510521 1.7242,4.0163592 1.72096,4.1143942 1.71892,4.2119942 1.71816,4.308782 c 8.757e-4,-0.00447 0.00175,-0.00892 0.00261,-0.013379 8.8e-6,0.00495 1.686e-4,0.00923 1.686e-4,0.014154 -4.6e-5,0.0042 -1.686e-4,0.00843 -1.686e-4,0.012603 7.01e-5,-5.54e-4 1.686e-4,-0.00106 2.189e-4,-0.00161 0.00109,0.288654 0.013354,0.5275637 0.025947,0.7009789 -0.2077076,0.4694746 -0.3225884,0.9598938 -0.3225884,1.434677 0,0.052192 0.00175,0.1035394 0.0044,0.1542816 -0.00276,0.056649 -0.0044,0.1131577 -0.0044,0.169452 0,2.0738386 1.8808618,3.0846125 4.2010099,3.0846125 0.7648478,0 1.4818964,-0.1098804 2.0996226,-0.3314418 1.2771113,-0.4456738 2.1395758,-1.3623494 2.1395758,-2.7665483 0,-0.056294 -0.00175,-0.1128016 -0.0044,-0.169452 0.00274,-0.050743 0.0044,-0.1020898 0.0044,-0.1542826 0,-0.4735094 -0.1143029,-0.9625669 -0.3209575,-1.4308947 0.012391,-0.1769554 0.024112,-0.415557 0.024624,-0.7031613 8.757e-4,0.00446 0.00175,0.0089 0.00261,0.013379 -6.567e-4,-0.096788 -0.0028,-0.194388 -0.00604,-0.2924228 C 9.5530656,3.5350782 9.5053671,2.9443813 9.3798511,2.3359235 9.3797832,2.3356585 9.3796825,2.3352731 9.3796825,2.3348636 9.3611618,2.2443884 9.3410167,2.1535223 9.3189364,2.0625031 9.282311,1.8966418 9.2285418,1.6590959 9.1490298,1.4243402 Z" />
      <ellipse
         style="fill:#ffffff;stroke:#000000;stroke-width:0.0258288"
         id="path1369-6"
         cx="5.0825734"
         cy="5.0380821"
         rx="1.2876971"
         ry="1.2502445"
         transform="matrix(0.96677861,0.25561518,-0.22076126,0.97532788,0,0)" />
      <path
         id="path1577-1"
         style="fill:#000000;stroke:none;stroke-width:0.0225471"
         d="M 4.0095113,5.4633472 A 0.78745607,0.86644997 0 0 0 3.4523208,5.7183772 0.3166881,0.34134126 0 0 1 3.6190574,5.6669747 0.3166881,0.34134126 0 0 1 3.9357569,6.0082908 0.3166881,0.34134126 0 0 1 3.6190574,6.3496514 0.3166881,0.34134126 0 0 1 3.3023557,6.0082908 0.3166881,0.34134126 0 0 1 3.3102588,5.9325823 0.78745607,0.86644997 0 0 0 3.2220643,6.329802 0.78745607,0.86644997 0 0 0 4.00952,7.1962535 0.78745607,0.86644997 0 0 0 4.7969757,6.329802 0.78745607,0.86644997 0 0 0 4.00952,5.4633472 Z" />
      <ellipse
         style="fill:#ffffff;stroke:#000000;stroke-width:0.0258293"
         id="path1369-3-5"
         cx="-5.8971272"
         cy="7.9159131"
         rx="1.2875813"
         ry="1.250401"
         transform="matrix(-0.96676326,0.25567322,0.22071026,0.97533942,0,0)" />
      <path
         id="path1577-6-9"
         style="fill:#000000;stroke:none;stroke-width:0.0225471"
         d="M 7.2410262,5.4335421 A 0.78745607,0.86644997 0 0 0 6.683836,5.6885731 0.3166881,0.34134126 0 0 1 6.8505726,5.6371699 0.3166881,0.34134126 0 0 1 7.1672718,5.978485 0.3166881,0.34134126 0 0 1 6.8505726,6.3198473 0.3166881,0.34134126 0 0 1 6.5338709,5.978485 0.3166881,0.34134126 0 0 1 6.541752,5.9027782 0.78745607,0.86644997 0 0 0 6.4535576,6.299997 0.78745607,0.86644997 0 0 0 7.2410131,7.1664484 0.78745607,0.86644997 0 0 0 8.0284688,6.299997 0.78745607,0.86644997 0 0 0 7.2410131,5.4335421 Z" />
    </g>
  </g>
</svg>
